<?xml version="1.0" encoding="utf-8" standalone="no"?>
<!DOCTYPE svg PUBLIC "-//W3C//DTD SVG 1.1//EN"
  "http://www.w3.org/Graphics/SVG/1.1/DTD/svg11.dtd">
<!-- Created with matplotlib (http://matplotlib.org/) -->
<svg height="432pt" version="1.1" viewBox="0 0 576 432" width="576pt" xmlns="http://www.w3.org/2000/svg" xmlns:xlink="http://www.w3.org/1999/xlink">
 <defs>
  <style type="text/css">
*{stroke-linecap:butt;stroke-linejoin:round;}
  </style>
 </defs>
 <g id="figure_1">
  <g id="patch_1">
   <path d="
M0 432
L576 432
L576 0
L0 0
z
" style="fill:none;"/>
  </g>
  <g id="axes_1">
   <g id="patch_2">
    <path d="
M72 388.8
L518.4 388.8
L518.4 43.2
L72 43.2
z
" style="fill:none;"/>
   </g>
   <g id="line2d_1">
    <path clip-path="url(#p7ff5b81e1d)" d="
M72 388.8
L80.0352 388.688
L88.0704 388.352
L96.1056 387.792
L104.141 387.008
L112.176 386.001
L120.211 384.769
L128.246 383.313
L136.282 381.634
L144.317 379.73
L152.352 377.603
L160.387 375.251
L168.422 372.676
L176.458 369.876
L184.939 366.678
L193.421 363.231
L201.902 359.534
L210.384 355.588
L218.866 351.392
L227.347 346.946
L235.829 342.251
L244.31 337.307
L252.792 332.113
L261.274 326.669
L270.202 320.67
L279.13 314.394
L288.058 307.841
L296.986 301.012
L305.914 293.907
L314.842 286.525
L324.216 278.476
L333.59 270.122
L342.965 261.464
L352.339 252.501
L361.714 243.233
L371.088 233.66
L380.909 223.305
L390.73 212.615
L400.55 201.59
L410.371 190.231
L420.192 178.537
L430.013 166.509
L440.28 153.576
L450.547 140.278
L460.814 126.614
L471.082 112.584
L481.349 98.1888
L492.062 82.7778
L502.776 66.9686
L513.49 50.7614
L518.4 43.2
L518.4 43.2" style="fill:none;stroke:#ff0000;stroke-linecap:square;stroke-width:2;"/>
   </g>
   <g id="line2d_2">
    <defs>
     <path d="
M0 5
C1.32602 5 2.5979 4.47317 3.53553 3.53553
C4.47317 2.5979 5 1.32602 5 0
C5 -1.32602 4.47317 -2.5979 3.53553 -3.53553
C2.5979 -4.47317 1.32602 -5 0 -5
C-1.32602 -5 -2.5979 -4.47317 -3.53553 -3.53553
C-4.47317 -2.5979 -5 -1.32602 -5 0
C-5 1.32602 -4.47317 2.5979 -3.53553 3.53553
C-2.5979 4.47317 -1.32602 5 0 5
z
" id="mc2f506c4e0" style="stroke:#000000;stroke-width:0.5;"/>
    </defs>
    <g clip-path="url(#p7ff5b81e1d)">
     <use style="fill:#0000ff;stroke:#000000;stroke-width:0.5;" x="72.0" xlink:href="#mc2f506c4e0" y="388.8"/>
     <use style="fill:#0000ff;stroke:#000000;stroke-width:0.5;" x="116.64" xlink:href="#mc2f506c4e0" y="385.344"/>
     <use style="fill:#0000ff;stroke:#000000;stroke-width:0.5;" x="161.28" xlink:href="#mc2f506c4e0" y="374.976"/>
     <use style="fill:#0000ff;stroke:#000000;stroke-width:0.5;" x="205.92" xlink:href="#mc2f506c4e0" y="357.696"/>
     <use style="fill:#0000ff;stroke:#000000;stroke-width:0.5;" x="250.56" xlink:href="#mc2f506c4e0" y="333.504"/>
     <use style="fill:#0000ff;stroke:#000000;stroke-width:0.5;" x="295.2" xlink:href="#mc2f506c4e0" y="302.4"/>
     <use style="fill:#0000ff;stroke:#000000;stroke-width:0.5;" x="339.84" xlink:href="#mc2f506c4e0" y="264.384"/>
     <use style="fill:#0000ff;stroke:#000000;stroke-width:0.5;" x="384.48" xlink:href="#mc2f506c4e0" y="219.456"/>
     <use style="fill:#0000ff;stroke:#000000;stroke-width:0.5;" x="429.12" xlink:href="#mc2f506c4e0" y="167.616"/>
     <use style="fill:#0000ff;stroke:#000000;stroke-width:0.5;" x="473.76" xlink:href="#mc2f506c4e0" y="108.864"/>
     <use style="fill:#0000ff;stroke:#000000;stroke-width:0.5;" x="518.4" xlink:href="#mc2f506c4e0" y="43.2"/>
    </g>
   </g>
   <g id="patch_3">
    <path d="
M72 43.2
L518.4 43.2" style="fill:none;stroke:#ffffff;stroke-linecap:square;stroke-linejoin:miter;stroke-width:1.5;"/>
   </g>
   <g id="patch_4">
    <path d="
M518.4 388.8
L518.4 43.2" style="fill:none;stroke:#ffffff;stroke-linecap:square;stroke-linejoin:miter;stroke-width:1.5;"/>
   </g>
   <g id="patch_5">
    <path d="
M72 388.8
L518.4 388.8" style="fill:none;stroke:#ffffff;stroke-linecap:square;stroke-linejoin:miter;stroke-width:1.5;"/>
   </g>
   <g id="patch_6">
    <path d="
M72 388.8
L72 43.2" style="fill:none;stroke:#ffffff;stroke-linecap:square;stroke-linejoin:miter;stroke-width:1.5;"/>
   </g>
   <g id="matplotlib.axis_1">
    <g id="xtick_1">
     <g id="line2d_3">
      <defs>
       <path d="
M0 0
L0 -4" id="m65466783c8" style="stroke:#ffffff;stroke-width:0.5;"/>
      </defs>
      <g>
       <use style="fill:#ffffff;stroke:#ffffff;stroke-width:0.5;" x="72.0" xlink:href="#m65466783c8" y="388.8"/>
      </g>
     </g>
     <g id="line2d_4">
      <defs>
       <path d="
M0 0
L0 4" id="m63777a1061" style="stroke:#ffffff;stroke-width:0.5;"/>
      </defs>
      <g>
       <use style="fill:#ffffff;stroke:#ffffff;stroke-width:0.5;" x="72.0" xlink:href="#m63777a1061" y="43.2"/>
      </g>
     </g>
     <g id="text_1">
      <!-- $0.0$ -->
      <defs>
       <path d="
M42 31.6406
C42 37.75 41.9062 48.125 37.7031 56.1094
C34 63.1094 28.0938 65.5938 22.9062 65.5938
C18.0938 65.5938 12 63.4062 8.20312 56.2031
C4.20312 48.7188 3.79688 39.4375 3.79688 31.6406
C3.79688 25.9531 3.90625 17.2812 7 9.67188
C11.2969 -0.609375 19 -2 22.9062 -2
C27.5 -2 34.5 -0.109375 38.5938 9.375
C41.5938 16.2812 42 24.3594 42 31.6406
M22.9062 -0.40625
C16.5 -0.40625 12.7031 5.07812 11.2969 12.6875
C10.2031 18.5625 10.2031 27.1562 10.2031 32.75
C10.2031 40.4375 10.2031 46.8281 11.5 52.9219
C13.4062 61.3906 19 64 22.9062 64
C27 64 32.2969 61.2969 34.2031 53.125
C35.5 47.4375 35.5938 40.7344 35.5938 32.75
C35.5938 26.25 35.5938 18.2656 34.4062 12.375
C32.2969 1.48438 26.4062 -0.40625 22.9062 -0.40625" id="CMR17-48"/>
       <path d="
M18.4062 4.79688
C18.4062 7.6875 16 9.67188 13.5938 9.67188
C10.7031 9.67188 8.70312 7.28125 8.70312 4.89062
C8.70312 2 11.0938 0 13.5 0
C16.4062 0 18.4062 2.39062 18.4062 4.79688" id="CMMI12-58"/>
      </defs>
      <g style="fill:#ffffff;" transform="translate(60.1521868676 406.63699676)scale(0.2 -0.2)">
       <use transform="scale(0.996264009963)" xlink:href="#CMR17-48"/>
       <use transform="translate(45.6904771171 0.0)scale(0.996264009963)" xlink:href="#CMMI12-58"/>
       <use transform="translate(72.7876542069 0.0)scale(0.996264009963)" xlink:href="#CMR17-48"/>
      </g>
     </g>
    </g>
    <g id="xtick_2">
     <g id="line2d_5">
      <g>
       <use style="fill:#ffffff;stroke:#ffffff;stroke-width:0.5;" x="161.28" xlink:href="#m65466783c8" y="388.8"/>
      </g>
     </g>
     <g id="line2d_6">
      <g>
       <use style="fill:#ffffff;stroke:#ffffff;stroke-width:0.5;" x="161.28" xlink:href="#m63777a1061" y="43.2"/>
      </g>
     </g>
     <g id="text_2">
      <!-- $0.2$ -->
      <defs>
       <path d="
M41.7031 15.4531
L39.9062 15.4531
C38.9062 8.375 38.0938 7.17188 37.7031 6.5625
C37.2031 5.76562 30 5.76562 28.5938 5.76562
L9.40625 5.76562
C13 9.67188 20 16.75 28.5 24.9531
C34.5938 30.7344 41.7031 37.5312 41.7031 47.4219
C41.7031 59.2188 32.2969 66 21.7969 66
C10.7969 66 4.09375 56.3125 4.09375 47.3438
C4.09375 43.4375 7 42.9375 8.20312 42.9375
C9.20312 42.9375 12.2031 43.5469 12.2031 47.0312
C12.2031 50.1094 9.59375 51 8.20312 51
C7.59375 51 7 50.9062 6.59375 50.7031
C8.5 59.2188 14.2969 63.4062 20.4062 63.4062
C29.0938 63.4062 34.7969 56.5156 34.7969 47.4219
C34.7969 38.7344 29.7031 31.25 24 24.75
L4.09375 2.28125
L4.09375 0
L39.2969 0
z
" id="CMR17-50"/>
      </defs>
      <g style="fill:#ffffff;" transform="translate(149.432186868 406.63699676)scale(0.2 -0.2)">
       <use transform="scale(0.996264009963)" xlink:href="#CMR17-48"/>
       <use transform="translate(45.6904771171 0.0)scale(0.996264009963)" xlink:href="#CMMI12-58"/>
       <use transform="translate(72.7876542069 0.0)scale(0.996264009963)" xlink:href="#CMR17-50"/>
      </g>
     </g>
    </g>
    <g id="xtick_3">
     <g id="line2d_7">
      <g>
       <use style="fill:#ffffff;stroke:#ffffff;stroke-width:0.5;" x="250.56" xlink:href="#m65466783c8" y="388.8"/>
      </g>
     </g>
     <g id="line2d_8">
      <g>
       <use style="fill:#ffffff;stroke:#ffffff;stroke-width:0.5;" x="250.56" xlink:href="#m63777a1061" y="43.2"/>
      </g>
     </g>
     <g id="text_3">
      <!-- $0.4$ -->
      <defs>
       <path d="
M33.5938 64.3281
C33.5938 66.4062 33.5 66.5 31.7031 66.5
L2 19.5938
L2 17
L27.7969 17
L27.7969 7.14062
C27.7969 3.5 27.5938 2.5 20.5938 2.5
L18.7031 2.5
L18.7031 0
C21.9062 0 27.2969 0 30.7031 0
C34.0938 0 39.5 0 42.7031 0
L42.7031 2.5
L40.7969 2.5
C33.7969 2.5 33.5938 3.5 33.5938 7.14062
L33.5938 17
L43.7969 17
L43.7969 19.5938
L33.5938 19.5938
z

M28.0938 57.7656
L28.0938 19.5938
L4 19.5938
z
" id="CMR17-52"/>
      </defs>
      <g style="fill:#ffffff;" transform="translate(238.712186868 406.63699676)scale(0.2 -0.2)">
       <use transform="scale(0.996264009963)" xlink:href="#CMR17-48"/>
       <use transform="translate(45.6904771171 0.0)scale(0.996264009963)" xlink:href="#CMMI12-58"/>
       <use transform="translate(72.7876542069 0.0)scale(0.996264009963)" xlink:href="#CMR17-52"/>
      </g>
     </g>
    </g>
    <g id="xtick_4">
     <g id="line2d_9">
      <g>
       <use style="fill:#ffffff;stroke:#ffffff;stroke-width:0.5;" x="339.84" xlink:href="#m65466783c8" y="388.8"/>
      </g>
     </g>
     <g id="line2d_10">
      <g>
       <use style="fill:#ffffff;stroke:#ffffff;stroke-width:0.5;" x="339.84" xlink:href="#m63777a1061" y="43.2"/>
      </g>
     </g>
     <g id="text_4">
      <!-- $0.6$ -->
      <defs>
       <path d="
M10.5938 34
C10.5938 57.6562 21.7969 63 28.2969 63
C30.4062 63 35.5 62.6406 37.5 59
C35.9062 59 32.9062 59 32.9062 55.5156
C32.9062 52.8281 35.0938 51.9219 36.5 51.9219
C37.4062 51.9219 40.0938 52.3125 40.0938 55.625
C40.0938 61.7812 35.0938 65.2969 28.2031 65.2969
C16.2969 65.2969 3.79688 52.9688 3.79688 31
C3.79688 3.95312 15.0938 -2 23.0938 -2
C32.7969 -2 42 6.67188 42 20.0469
C42 32.5156 33.9062 41.5938 23.7031 41.5938
C17.5938 41.5938 13.0938 37.6094 10.5938 30.625
z

M23.0938 0.390625
C10.7969 0.390625 10.7969 18.75 10.7969 22.4375
C10.7969 29.625 14.2031 40 23.5 40
C25.2031 40 30.0938 40 33.4062 33.125
C35.2031 29.2188 35.2031 25.1406 35.2031 20.1406
C35.2031 14.75 35.2031 10.7812 33.0938 6.78125
C30.9062 2.67188 27.7031 0.390625 23.0938 0.390625" id="CMR17-54"/>
      </defs>
      <g style="fill:#ffffff;" transform="translate(327.992186868 406.63699676)scale(0.2 -0.2)">
       <use transform="scale(0.996264009963)" xlink:href="#CMR17-48"/>
       <use transform="translate(45.6904771171 0.0)scale(0.996264009963)" xlink:href="#CMMI12-58"/>
       <use transform="translate(72.7876542069 0.0)scale(0.996264009963)" xlink:href="#CMR17-54"/>
      </g>
     </g>
    </g>
    <g id="xtick_5">
     <g id="line2d_11">
      <g>
       <use style="fill:#ffffff;stroke:#ffffff;stroke-width:0.5;" x="429.12" xlink:href="#m65466783c8" y="388.8"/>
      </g>
     </g>
     <g id="line2d_12">
      <g>
       <use style="fill:#ffffff;stroke:#ffffff;stroke-width:0.5;" x="429.12" xlink:href="#m63777a1061" y="43.2"/>
      </g>
     </g>
     <g id="text_5">
      <!-- $0.8$ -->
      <defs>
       <path d="
M27.2031 35.375
C33.5 38.5625 39.9062 43.3281 39.9062 50.9844
C39.9062 60.0312 31.0938 65.2969 23 65.2969
C13.9062 65.2969 5.90625 58.7344 5.90625 49.6875
C5.90625 47.2031 6.5 42.9219 10.4062 39.1406
C11.4062 38.1562 15.5938 35.1719 18.2969 33.2812
C13.7969 30.9844 3.29688 25.5312 3.29688 14.5938
C3.29688 4.35938 13.0938 -2 22.7969 -2
C33.5 -2 42.5 5.65625 42.5 15.7969
C42.5 24.8438 36.4062 29.0312 32.4062 31.7031
z

M14.0938 44.125
C13.2969 44.625 9.29688 47.7031 9.29688 52.375
C9.29688 58.4375 15.5938 63 22.7969 63
C30.7031 63 36.5 57.4531 36.5 50.9844
C36.5 41.7344 26.0938 36.4688 25.5938 36.4688
C25.5 36.4688 25.4062 36.4688 24.5938 37.0781
z

M32.5 23.7344
C34 22.6406 38.7969 19.375 38.7969 13.2969
C38.7969 5.95312 31.4062 0.390625 23 0.390625
C13.9062 0.390625 7 6.84375 7 14.6875
C7 22.5469 13.0938 29.0938 20 32.1875
z
" id="CMR17-56"/>
      </defs>
      <g style="fill:#ffffff;" transform="translate(417.272186868 406.63699676)scale(0.2 -0.2)">
       <use transform="scale(0.996264009963)" xlink:href="#CMR17-48"/>
       <use transform="translate(45.6904771171 0.0)scale(0.996264009963)" xlink:href="#CMMI12-58"/>
       <use transform="translate(72.7876542069 0.0)scale(0.996264009963)" xlink:href="#CMR17-56"/>
      </g>
     </g>
    </g>
    <g id="xtick_6">
     <g id="line2d_13">
      <g>
       <use style="fill:#ffffff;stroke:#ffffff;stroke-width:0.5;" x="518.4" xlink:href="#m65466783c8" y="388.8"/>
      </g>
     </g>
     <g id="line2d_14">
      <g>
       <use style="fill:#ffffff;stroke:#ffffff;stroke-width:0.5;" x="518.4" xlink:href="#m63777a1061" y="43.2"/>
      </g>
     </g>
     <g id="text_6">
      <!-- $1.0$ -->
      <defs>
       <path d="
M26.5938 63.3125
C26.5938 65.4062 26.5 65.5 25.0938 65.5
C21.2031 61.1875 15.2969 59.7969 9.70312 59.7969
C9.40625 59.7969 8.90625 59.7969 8.79688 59.5
C8.70312 59.2969 8.70312 59.0938 8.70312 57
C11.7969 57 17 57.5938 21 59.9844
L21 7.20312
C21 3.6875 20.7969 2.5 12.2031 2.5
L9.20312 2.5
L9.20312 0
C14 0 19 0 23.7969 0
C28.5938 0 33.5938 0 38.4062 0
L38.4062 2.5
L35.4062 2.5
C26.7969 2.5 26.5938 3.59375 26.5938 7.15625
z
" id="CMR17-49"/>
      </defs>
      <g style="fill:#ffffff;" transform="translate(506.552186868 406.63699676)scale(0.2 -0.2)">
       <use transform="scale(0.996264009963)" xlink:href="#CMR17-49"/>
       <use transform="translate(45.6904771171 0.0)scale(0.996264009963)" xlink:href="#CMMI12-58"/>
       <use transform="translate(72.7876542069 0.0)scale(0.996264009963)" xlink:href="#CMR17-48"/>
      </g>
     </g>
    </g>
    <g id="text_7">
     <!-- t -->
     <defs>
      <path d="
M16.7031 37
L29.7031 37
L29.7031 42.7656
L16.7031 42.7656
L16.7031 55
L9.59375 55
L9.59375 42.7656
L1.70312 42.7656
L1.70312 37
L9.40625 37
L9.40625 11.7031
C9.40625 6 10.7031 -1 17.2969 -1
C22.2969 -1 26.9062 0.390625 31.2969 2.6875
L29.7031 8.5625
C27.2969 6.46875 24.4062 5.26562 21.2969 5.26562
C16.9062 5.26562 16.7031 10.875 16.7031 13.375
z
" id="CMSS17-116"/>
     </defs>
     <g style="fill:#ffffff;" transform="translate(291.816843332 429.349627131)scale(0.2 -0.2)">
      <use transform="scale(0.996264009963)" xlink:href="#CMSS17-116"/>
     </g>
    </g>
   </g>
   <g id="matplotlib.axis_2">
    <g id="ytick_1">
     <g id="line2d_15">
      <defs>
       <path d="
M0 0
L4 0" id="m0a16658aff" style="stroke:#ffffff;stroke-width:0.5;"/>
      </defs>
      <g>
       <use style="fill:#ffffff;stroke:#ffffff;stroke-width:0.5;" x="72.0" xlink:href="#m0a16658aff" y="388.8"/>
      </g>
     </g>
     <g id="line2d_16">
      <defs>
       <path d="
M0 0
L-4 0" id="me3d7da525a" style="stroke:#ffffff;stroke-width:0.5;"/>
      </defs>
      <g>
       <use style="fill:#ffffff;stroke:#ffffff;stroke-width:0.5;" x="518.4" xlink:href="#me3d7da525a" y="388.8"/>
      </g>
     </g>
     <g id="text_8">
      <!-- $0.0$ -->
      <g style="fill:#ffffff;" transform="translate(44.3043737352 393.780681575)scale(0.2 -0.2)">
       <use transform="scale(0.996264009963)" xlink:href="#CMR17-48"/>
       <use transform="translate(45.6904771171 0.0)scale(0.996264009963)" xlink:href="#CMMI12-58"/>
       <use transform="translate(72.7876542069 0.0)scale(0.996264009963)" xlink:href="#CMR17-48"/>
      </g>
     </g>
    </g>
    <g id="ytick_2">
     <g id="line2d_17">
      <g>
       <use style="fill:#ffffff;stroke:#ffffff;stroke-width:0.5;" x="72.0" xlink:href="#m0a16658aff" y="319.68"/>
      </g>
     </g>
     <g id="line2d_18">
      <g>
       <use style="fill:#ffffff;stroke:#ffffff;stroke-width:0.5;" x="518.4" xlink:href="#me3d7da525a" y="319.68"/>
      </g>
     </g>
     <g id="text_9">
      <!-- $0.2$ -->
      <g style="fill:#ffffff;" transform="translate(44.3043737352 324.660681575)scale(0.2 -0.2)">
       <use transform="scale(0.996264009963)" xlink:href="#CMR17-48"/>
       <use transform="translate(45.6904771171 0.0)scale(0.996264009963)" xlink:href="#CMMI12-58"/>
       <use transform="translate(72.7876542069 0.0)scale(0.996264009963)" xlink:href="#CMR17-50"/>
      </g>
     </g>
    </g>
    <g id="ytick_3">
     <g id="line2d_19">
      <g>
       <use style="fill:#ffffff;stroke:#ffffff;stroke-width:0.5;" x="72.0" xlink:href="#m0a16658aff" y="250.56"/>
      </g>
     </g>
     <g id="line2d_20">
      <g>
       <use style="fill:#ffffff;stroke:#ffffff;stroke-width:0.5;" x="518.4" xlink:href="#me3d7da525a" y="250.56"/>
      </g>
     </g>
     <g id="text_10">
      <!-- $0.4$ -->
      <g style="fill:#ffffff;" transform="translate(44.3043737352 255.540681575)scale(0.2 -0.2)">
       <use transform="scale(0.996264009963)" xlink:href="#CMR17-48"/>
       <use transform="translate(45.6904771171 0.0)scale(0.996264009963)" xlink:href="#CMMI12-58"/>
       <use transform="translate(72.7876542069 0.0)scale(0.996264009963)" xlink:href="#CMR17-52"/>
      </g>
     </g>
    </g>
    <g id="ytick_4">
     <g id="line2d_21">
      <g>
       <use style="fill:#ffffff;stroke:#ffffff;stroke-width:0.5;" x="72.0" xlink:href="#m0a16658aff" y="181.44"/>
      </g>
     </g>
     <g id="line2d_22">
      <g>
       <use style="fill:#ffffff;stroke:#ffffff;stroke-width:0.5;" x="518.4" xlink:href="#me3d7da525a" y="181.44"/>
      </g>
     </g>
     <g id="text_11">
      <!-- $0.6$ -->
      <g style="fill:#ffffff;" transform="translate(44.3043737352 186.420681575)scale(0.2 -0.2)">
       <use transform="scale(0.996264009963)" xlink:href="#CMR17-48"/>
       <use transform="translate(45.6904771171 0.0)scale(0.996264009963)" xlink:href="#CMMI12-58"/>
       <use transform="translate(72.7876542069 0.0)scale(0.996264009963)" xlink:href="#CMR17-54"/>
      </g>
     </g>
    </g>
    <g id="ytick_5">
     <g id="line2d_23">
      <g>
       <use style="fill:#ffffff;stroke:#ffffff;stroke-width:0.5;" x="72.0" xlink:href="#m0a16658aff" y="112.32"/>
      </g>
     </g>
     <g id="line2d_24">
      <g>
       <use style="fill:#ffffff;stroke:#ffffff;stroke-width:0.5;" x="518.4" xlink:href="#me3d7da525a" y="112.32"/>
      </g>
     </g>
     <g id="text_12">
      <!-- $0.8$ -->
      <g style="fill:#ffffff;" transform="translate(44.3043737352 117.300681575)scale(0.2 -0.2)">
       <use transform="scale(0.996264009963)" xlink:href="#CMR17-48"/>
       <use transform="translate(45.6904771171 0.0)scale(0.996264009963)" xlink:href="#CMMI12-58"/>
       <use transform="translate(72.7876542069 0.0)scale(0.996264009963)" xlink:href="#CMR17-56"/>
      </g>
     </g>
    </g>
    <g id="ytick_6">
     <g id="line2d_25">
      <g>
       <use style="fill:#ffffff;stroke:#ffffff;stroke-width:0.5;" x="72.0" xlink:href="#m0a16658aff" y="43.2"/>
      </g>
     </g>
     <g id="line2d_26">
      <g>
       <use style="fill:#ffffff;stroke:#ffffff;stroke-width:0.5;" x="518.4" xlink:href="#me3d7da525a" y="43.2"/>
      </g>
     </g>
     <g id="text_13">
      <!-- $1.0$ -->
      <g style="fill:#ffffff;" transform="translate(44.3043737352 48.180681575)scale(0.2 -0.2)">
       <use transform="scale(0.996264009963)" xlink:href="#CMR17-49"/>
       <use transform="translate(45.6904771171 0.0)scale(0.996264009963)" xlink:href="#CMMI12-58"/>
       <use transform="translate(72.7876542069 0.0)scale(0.996264009963)" xlink:href="#CMR17-48"/>
      </g>
     </g>
    </g>
    <g id="text_14">
     <!-- y=f(t) -->
     <defs>
      <path d="
M41.7969 43
L34 43
C25.5 20.2188 22.5938 10.9844 22.4062 6
L22.2969 6
C22 10.8906 17.5938 22.8125 14.0938 31.375
L9.40625 43
L1.29688 43
L19 0.203125
C17.9062 -2.78125 16.2969 -7.26562 15.7969 -8.26562
C13.5938 -13.8281 12.0938 -13.8281 10.5 -13.8281
C10.0938 -13.8281 6.90625 -13.8281 3.29688 -12.625
L3.90625 -19.2031
C6.40625 -19.7031 8.90625 -20 10.7031 -20
C13.2031 -20 18.2031 -20 22.7969 -7.76562
z
" id="CMSS17-121"/>
      <path d="
M25.2031 74.4531
C19.7969 68.9688 7.40625 56.2344 7.40625 24.7812
C7.40625 -6.78125 19.7969 -19.4219 25.2031 -25
L31.2969 -25
C19 -12.25 15 5.5625 15 24.6719
C15 43.6875 18.7969 61.6094 31.2969 74.4531
z
" id="CMSS17-40"/>
      <path d="
M11.2969 -25
C16.7031 -19.5156 29.0938 -6.78125 29.0938 24.6719
C29.0938 56.2344 16.7031 68.875 11.2969 74.4531
L5.20312 74.4531
C17.5 61.7031 21.5 43.8906 21.5 24.7812
C21.5 5.76562 17.7031 -12.1562 5.20312 -25
z
" id="CMSS17-41"/>
      <path d="
M16.7969 37
L26.9062 37
L26.9062 42.7656
L16.5938 42.7656
L16.5938 55.6094
C16.5938 62.7188 22 63.9375 25.0938 63.9375
C26.0938 63.9375 28.9062 63.9375 32.5 62.6406
L32.5 69.2031
C30.2031 69.7031 27.4062 70 25.2031 70
C15.9062 70 9.40625 62.3906 9.40625 52.4844
L9.40625 42.7656
L2.5 42.7656
L2.5 37
L9.40625 37
L9.40625 0
L16.7969 0
z
" id="CMSS17-102"/>
      <path d="
M64.7969 31.5156
C66.2969 31.5156 67.7969 31.5156 67.7969 33.2031
C67.7969 35 66.0938 35 64.4062 35
L8.59375 35
C6.90625 35 5.20312 35 5.20312 33.2031
C5.20312 31.5156 6.70312 31.5156 8.20312 31.5156
z

M64.4062 14
C66.0938 14 67.7969 14 67.7969 15.7969
C67.7969 17.4844 66.2969 17.4844 64.7969 17.4844
L8.20312 17.4844
C6.70312 17.4844 5.20312 17.4844 5.20312 15.7969
C5.20312 14 6.90625 14 8.59375 14
z
" id="CMSS17-61"/>
     </defs>
     <g style="fill:#ffffff;" transform="translate(34.3397300407 241.1194024)rotate(-90.0)scale(0.2 -0.2)">
      <use transform="scale(0.996264009963)" xlink:href="#CMSS17-121"/>
      <use transform="translate(43.0001416806 0.0)scale(0.996264009963)" xlink:href="#CMSS17-61"/>
      <use transform="translate(115.8680765 0.0)scale(0.996264009963)" xlink:href="#CMSS17-102"/>
      <use transform="translate(144.494735319 0.0)scale(0.996264009963)" xlink:href="#CMSS17-40"/>
      <use transform="translate(180.928649522 0.0)scale(0.996264009963)" xlink:href="#CMSS17-116"/>
      <use transform="translate(214.760216206 0.0)scale(0.996264009963)" xlink:href="#CMSS17-41"/>
     </g>
    </g>
   </g>
   <g id="text_15">
    <!-- $f(t)=t^2$ -->
    <defs>
     <path d="
M64.2969 31.5156
C65.7969 31.5156 67.2969 31.5156 67.2969 33.2031
C67.2969 35 65.5938 35 63.9062 35
L8 35
C6.29688 35 4.59375 35 4.59375 33.2031
C4.59375 31.5156 6.09375 31.5156 7.59375 31.5156
z

M63.9062 14
C65.5938 14 67.2969 14 67.2969 15.7969
C67.2969 17.4844 65.7969 17.4844 64.2969 17.4844
L7.59375 17.4844
C6.09375 17.4844 4.59375 17.4844 4.59375 15.7969
C4.59375 14 6.29688 14 8 14
z
" id="CMR17-61"/>
     <path d="
M44.5938 40.0938
C46.5938 40.0938 47.4062 40.0938 47.4062 42
C47.4062 43 46.5938 43 44.7969 43
L36.7031 43
C38.5938 53.5781 40 60.8906 40.7969 64.1719
C41.4062 66.6406 43.5 69 46.0938 69
C48.2031 69 50.2969 68.0938 51.2969 67.1562
C47.4062 66.75 46.2031 63.7812 46.2031 62.0156
C46.2031 59.9531 47.7031 58.7344 49.5938 58.7344
C51.5938 58.7344 54.5938 60.4688 54.5938 64.3594
C54.5938 68.6406 50.4062 71 46 71
C41.7031 71 37.5 67.7188 35.5 63.7188
C33.7031 60.125 32.7031 56.4375 30.4062 43
L23.7031 43
C21.7969 43 20.7969 43 20.7969 41.2031
C20.7969 40.0938 21.4062 40.0938 23.4062 40.0938
L29.7969 40.0938
C28 30.875 23.9062 8.46875 21.5938 -2.14062
C19.9062 -10.7656 18.4062 -18 13.4062 -18
C13.0938 -18 10.2031 -18 8.40625 -16.1094
C13.5 -15.7031 13.5 -11.3438 13.5 -11.25
C13.5 -9.26562 12 -8.07812 10.0938 -8.07812
C8.09375 -8.07812 5.09375 -9.76562 5.09375 -13.5469
C5.09375 -17.8125 9.5 -20 13.4062 -20
C23.5938 -20 27.7969 -1.84375 28.9062 3.10938
C30.7031 10.75 35.5938 37.125 36.0938 40.0938
z
" id="CMMI12-102"/>
     <path d="
M20.0938 40.0938
L29.2969 40.0938
C31.2031 40.0938 32.2031 40.0938 32.2031 41.8906
C32.2031 43 31.5938 43 29.5938 43
L20.7969 43
L24.5 57.6875
C24.9062 59.0781 24.9062 59.2812 24.9062 60
C24.9062 61.6094 23.5938 62.5 22.2969 62.5
C21.5 62.5 19.2031 62.2031 18.4062 58.9844
L14.5 43
L5.09375 43
C3.09375 43 2.20312 43 2.20312 41.0938
C2.20312 40.0938 2.90625 40.0938 4.79688 40.0938
L13.7031 40.0938
L7.09375 13.7656
C6.29688 10.2812 6 9.28125 6 7.98438
C6 3.29688 9.29688 -1 14.9062 -1
C25 -1 30.4062 13.5781 30.4062 14.2656
C30.4062 14.875 30 15.1719 29.4062 15.1719
C29.2031 15.1719 28.7969 15.1719 28.5938 14.7656
C28.5 14.6719 28.4062 14.5625 27.7031 12.9688
C25.5938 7.98438 21 1 15.2031 1
C12.2031 1 12 3.5 12 5.6875
C12 5.78125 12 7.6875 12.2969 8.875
z
" id="CMMI12-116"/>
     <path d="
M30.5938 -24.3906
C30.5938 -24.2969 30.5938 -24.0938 30.2969 -23.7969
C25.7031 -19.125 13.4062 -6.375 13.4062 24.6875
C13.4062 55.75 25.5 68.3906 30.4062 73.3594
C30.4062 73.4688 30.5938 73.6719 30.5938 73.9531
C30.5938 74.25 30.2969 74.4531 29.9062 74.4531
C28.7969 74.4531 20.2969 67.0781 15.4062 56.125
C10.4062 45.0781 9 34.3281 9 24.7812
C9 17.6094 9.70312 5.46875 15.7031 -7.375
C20.5 -17.7344 28.7031 -25 29.9062 -25
C30.4062 -25 30.5938 -24.7969 30.5938 -24.3906" id="CMR17-40"/>
     <path d="
M26.2969 24.6719
C26.2969 31.8438 25.5938 43.9844 19.5938 56.8281
C14.7969 67.1875 6.59375 74.4531 5.40625 74.4531
C5.09375 74.4531 4.70312 74.3438 4.70312 73.8438
C4.70312 73.6562 4.79688 73.5469 4.90625 73.3438
C9.70312 68.375 21.9062 55.7344 21.9062 24.7812
C21.9062 -6.28125 9.79688 -18.9219 4.90625 -23.9062
C4.79688 -24.0938 4.70312 -24.2031 4.70312 -24.3906
C4.70312 -24.8906 5.09375 -25 5.40625 -25
C6.5 -25 15 -17.625 19.9062 -6.67188
C24.9062 4.375 26.2969 15.125 26.2969 24.6719" id="CMR17-41"/>
    </defs>
    <g style="fill:#ffffff;" transform="translate(251.887286871 38.2)scale(0.24 -0.24)">
     <use transform="scale(0.996264009963)" xlink:href="#CMMI12-102"/>
     <use transform="translate(58.7203048383 0.0)scale(0.996264009963)" xlink:href="#CMR17-40"/>
     <use transform="translate(94.0010726378 0.0)scale(0.996264009963)" xlink:href="#CMMI12-116"/>
     <use transform="translate(129.227402855 0.0)scale(0.996264009963)" xlink:href="#CMR17-41"/>
     <use transform="translate(192.182179376 0.0)scale(0.996264009963)" xlink:href="#CMR17-61"/>
     <use transform="translate(291.570976514 0.0)scale(0.996264009963)" xlink:href="#CMMI12-116"/>
     <use transform="translate(326.797306731 36.1536389419)scale(0.697381766617)" xlink:href="#CMR17-50"/>
    </g>
   </g>
  </g>
 </g>
 <defs>
  <clipPath id="p7ff5b81e1d">
   <rect height="345.6" width="446.4" x="72.0" y="43.2"/>
  </clipPath>
 </defs>
</svg>
