<?xml version="1.0" encoding="UTF-8" standalone="no"?>
<svg
   xmlns:dc="http://purl.org/dc/elements/1.1/"
   xmlns:cc="http://creativecommons.org/ns#"
   xmlns:rdf="http://www.w3.org/1999/02/22-rdf-syntax-ns#"
   xmlns:svg="http://www.w3.org/2000/svg"
   xmlns="http://www.w3.org/2000/svg"
   xmlns:sodipodi="http://sodipodi.sourceforge.net/DTD/sodipodi-0.dtd"
   xmlns:inkscape="http://www.inkscape.org/namespaces/inkscape"
   version="1.1"
   id="Layer_1"
   x="0px"
   y="0px"
   viewBox="0 0 1920 1490"
   enable-background="new 0 0 1920 1490"
   xml:space="preserve"
   inkscape:version="0.91 r13725"
   sodipodi:docname="Family-Holding-Hands-Silhouette.svg"><metadata
     id="metadata19"><rdf:RDF><cc:Work
         rdf:about=""><dc:format>image/svg+xml</dc:format><dc:type
           rdf:resource="http://purl.org/dc/dcmitype/StillImage" /></cc:Work></rdf:RDF></metadata><defs
     id="defs17" /><sodipodi:namedview
     pagecolor="#ffffff"
     bordercolor="#666666"
     borderopacity="1"
     objecttolerance="10"
     gridtolerance="10"
     guidetolerance="10"
     inkscape:pageopacity="0"
     inkscape:pageshadow="2"
     inkscape:window-width="1920"
     inkscape:window-height="988"
     id="namedview15"
     showgrid="false"
     inkscape:zoom="0.31677852"
     inkscape:cx="1381.7868"
     inkscape:cy="581.88438"
     inkscape:window-x="0"
     inkscape:window-y="0"
     inkscape:window-maximized="1"
     inkscape:current-layer="Layer_1" /><rect
     style="color:#000000;clip-rule:nonzero;display:inline;overflow:visible;visibility:visible;opacity:1;isolation:auto;mix-blend-mode:normal;color-interpolation:sRGB;color-interpolation-filters:linearRGB;solid-color:#000000;solid-opacity:1;fill:none;fill-opacity:1;fill-rule:nonzero;stroke:#4d4d4d;stroke-width:4;stroke-linecap:square;stroke-linejoin:round;stroke-miterlimit:4;stroke-dasharray:none;stroke-dashoffset:16.39999962;stroke-opacity:1;marker:none;color-rendering:auto;image-rendering:auto;shape-rendering:auto;text-rendering:auto;enable-background:accumulate"
     id="rect4187"
     width="1208.9829"
     height="1241.0923"
     x="17.857443"
     y="128.37001"
     inkscape:export-xdpi="70.019997"
     inkscape:export-ydpi="70.019997" /><path
     d="m 574.18,169.18 c 5.75,-3.54 9.84,-9.33 15.89,-12.38 4.43,-1.51 5.96,4.68 9.92,5.2 5.93,1.16 12.01,1.19 18.03,1.44 4.44,0.35 8.83,-2.53 13.21,-0.68 8.44,3.65 14.9,10.47 22.33,15.7 4.16,2.77 10.38,3.63 12.11,9.04 1.54,6.43 -2.66,12.91 -0.43,19.31 2.4,6.75 6.46,13.02 7.66,20.16 0.5,6.06 -6.2401,8.99 -7.19,14.58 -1.27,6.82 -1.46,13.79 -2.45,20.65 -0.22,2.61 -2.67,4.12 -3.66,6.38 -2.85,5.64 0.26,12.2 -2.2,17.98 -3.09,7.16 -8.64,12.95 -11.87,20.04 -1.97,6.26 -3.65,12.77 -3.4901,19.39 0.18,3 0.71,6.64 3.56,8.32 6.54,3.97 13.85,6.42 20.96,9.17 16.46,6.2 33.37,11.22 49.52,18.22 10.12,5.43 19.59,12.81 25.7,22.69 5.84,8.82 7.84,19.41 10.15,29.56 2.3,11.09 5.37,22 8.01,33.01 12.88,52.94 25.79,105.87 37.61,159.05 2.8,12.56 5.65,25.15 7.16,37.95 1.5099,13.32 0.24,26.71 0.27,40.06 -0.18,4.11 2.98,7.36 6.06,9.65 2.76,-11.47 2.66,-23.65 7,-34.78 4.41,-12.18 14.82,-20.76 20.43,-32.28 8.33,-16.61 8.8701,-35.79 16.33,-52.71 2.72,-6.51 5.59,-12.97 9.05,-19.12 1.65,-2.86 3.45,-5.89 6.46,-7.51 3.22,-1.76 7.1,-2.41 9.79,-5.09 3.87,-3.81 6.72,-8.58 10.92,-12.09 2.56,-2.32 5.72,-3.79 8.89,-5.08 13.2401,-5.45 26.95,-9.65 40.27,-14.88 5.55,-2.43 11.71,-7.35 10.58,-14.17 -1.88,-12.34 -3.79,-24.7 -6.57,-36.87 -1.11,-5.46 -3.87,-10.43 -4.68,-15.95 -1.55,-9.74 0.29,-19.53 1.58,-29.17 1.12,-8.21 3.09,-16.46 7.21,-23.71 3.54,-6.19 8.11,-11.74 13.05,-16.84 5.1801,-5.3 10.97,-10.3 17.98,-12.97 8.54,-3.08 17.83,-3.79 26.77,-2.28 7.41,1.4 16.1801,-0.15 22.05,5.64 11.08,11.06 20.28,23.8 30.45,35.67 13.4,15.93 28.09,30.92 39.35,48.52 8.3201,13.69 13.9301,28.81 18.92,43.97 0.51,2.23 2.0601,4.68 0.74,6.91 -3.9,-2.9 -7.37,-7.2 -12.77,-6.99 -0.23,5.83 0.67,11.83 -1.23,17.51 -0.78,1.98 -1.14,4.95 -3.65,5.42 -2.6499,-1.06 -2.77,-5.55 -6.21,-4.85 -0.88,3.99 1.34,8.72 -1.77,12.11 -1.12,1.33 -3.23,3.68 -5.01,2.09 -2.5399,-2.28 -5.62,-3.99 -9.0399,-4.48 -1.39,4.28 -2.1001,9.83 0.7599,13.62 6.16,3.48 13.75,3.48 19.9,7.13 5.75,2.71 7.7201,9.16 10.5601,14.34 18.9,39.59 35.38,80.29 54.1899,119.93 3.4401,7 6.67,14.2 11.4301,20.45 6.1799,8.42 13.74,15.67 21.21,22.92 5.22,5.13 10.5601,10.32 14.23,16.73 6,9.81 9.8401,20.72 13.01,31.72 2.0901,7.35 4.8401,14.75 4.6,22.5 -0.37,7.4399 -6.85,12.1899 -11.3099,17.4 2.16,2.19 6.29,0.67 7.9299,3.48 -2.8099,4.14 -10.22,3.31 -12.3999,8.11 7.33,11.41 21.12,17.43 26.88,30.07 1.9399,3.65 0.74,8.28 3.25,11.71 1.61,2.49 4.0399,5.01 3.58,8.24 m 0,0 c 23.5262,39.08718 28.1696,621.96 28.1696,621.96 -136.7143,0.2336 -813.16531,1.973 -1273.02370455,1.973 C 0.37978138,1447.1861 0,1342.8808 0,1275.25 c 1.25,-5.33 2.71,-10.6 4.01,-15.91 51.36,3.2201 102.71,6.6901 154.08,9.67 18.99,1.0699 37.97,2.27 56.97,2.8199 4.05,0.65 5.37,-4 6.89,-6.7699 1.26,-3.1901 5.24,-4.8401 5.28,-8.54 0.49,-5.76 1.54,-11.77 -0.38,-17.37 -2.59,-8.0801 -6.08,-15.85 -8.45,-23.99 -1.89,-4.9301 2.91,-9.17 1.95,-14.0801 -1.34,-10.08 -3.79,-20.0199 -4.46,-30.1799 -0.57,-9.09 2.89,-17.72 5.99,-26.0801 1.52,-4.62 5.35,-8.6399 4.56,-13.83 -1.34,-18.58 -3.37,-37.16 -6.82,-55.48 -1.63,-9.37 -9.31,-15.74 -13.22,-24.04 -3.84,-7.63 -7.98,-15.2 -10.43,-23.4199 -3.75,-11.6401 -2.74,-24.04 -2.89,-36.0801 0.06,-15.06 1.1,-30.12 1.01,-45.15 3.37,-6.99 9.71,-12.7 10.84,-20.7 0.69,-4.36 -2.76,-7.72 -5.68,-10.39 -6.62,-5.94 -14.65,-11.35 -17.63,-20.16 -2.34,-7.97 -2.57,-16.36 -2.84,-24.6 -0.29,-25.75 0.37,-52.05 8.35,-76.78 1.55,-5.55 5.76,-9.73 10.42,-12.84 5.07,-3.5699 9.32,-8.52 15.28,-10.64 4.62,-1.71 9.53,1.09 14.15,-0.58 1.57,-0.4 3.81,-1.1 3.65,-3.14 -0.5,-5.05 -2.36,-10.1 -5.75,-13.93 -7.3,-8.7 -16.43,-16.26 -20.99,-26.91 -2.47,-7.1 -2.31,-14.75 -2.85,-22.16 -0.55,-6.31 0.78,-12.77 -0.99,-18.95 -1.02,-5.52 -5.75,-9.5 -6.5,-15.1 -0.78,-5.9 1.43,-11.82 4.93,-16.49 2.61,-3.58 5.96,-7.25 10.59,-7.88 2.84,-0.5 5.57,0.91 7.79,2.56 3.61,2.8 7.57,5.09 11.19,7.88 4.11,2.97 9.45,1.81 13.94,0.51 7.47,-1.74 13.6,-6.92 21.06,-8.65 5,-0.7 7.92,4.94 12.83,4.89 7.42,-0.04 15.24,-0.37 22.02,3.21 4.26,1.95 6.25,6.52 9.96,9.17 4.69,3.54 9.76,7.11 12.45,12.52 3.23,6.59 4.01,14.1 3.8,21.36 -0.17,6.68 -2.92,12.87 -5.14,19.06 -0.95,2.67 -3.07,5.02 -2.99,7.99 0.4,3.67 5.22,5.11 5.25,8.95 -0.21,3.97 -5.09,5.24 -5.99,8.9 -0.14,2.71 1.37,5.31 0.79,8.02 -0.85,2.2 -2.97,3.5 -4.62,5.06 2.7,2.29 1.56,5.97 0.84,8.91 -0.76,2.7 -2.03,6.35 -5.31,6.66 -8.09,0.31 -15.95,-2.19 -23.97,-2.8 l -0.63,0.43 c -1.21,4.25 1.44,9.98 5.62,11.59 4.58,-0.74 8.12,-4.53 12.9,-4.66 6.19,-1.13 12.09,2.43 15.99,6.96 2.25,2.67 2.68,6.43 5,9.04 1.06,1.36 2.57,0.02 3.58,-0.68 3.66,-3.05 6.37,-7.02 9.39,-10.66 2.68,-3.22 4.97,-6.88 5.85,-11.02 10.86,-47.59 19.69,-95.67 32.48,-142.81 4.39,-16.29 8.66,-32.65 14.37,-48.55 3.45,-9.8 9.06,-18.6 14.38,-27.45 4.9,-8.05 7.99,-17.02 10.45,-26.06 4.76,-18.04 13.69,-34.66 18.26,-52.77 5.27,-20.93 9.66,-42.09 13.83,-63.27 1.46,-5.17 -1.79,-11.09 1.74,-15.68 5.37,-8.53 10.98,-16.91 17.09,-24.93 7.61,-10.12 18.44,-17.92 30.71,-21.26 10.93,-3.03 22.08,-5.2 33.07,-8 9.76,-2.34 18.88,-6.68 27.77,-11.24 4.46,-2.36 9.31,-5.44 10.6,-10.69 2.91,-9.93 -1.28,-19.82 -4.28,-29.17 -1.55,-5.49 -5.15,-10.24 -5.95,-15.96 -0.97,-7.65 -0.27,-15.36 -0.35,-23.04 -1.3701,-4.24 -4.27,-8.21 -3.66,-12.9 0.47,-4.01 0.83,-8.28 -1.21,-11.96 -3.56,-6.64 -6.55,-14.3 -5.25,-21.93 0.91,-5.37 6.82,-6.28 10.66,-8.76 4.28,-3.71 4.78,-9.81 7.31,-14.6 2.18,-5.0099 7.03,-7.8599 11.49,-10.5599 m 540.79,324.16 -0.25,0.89 c 0.55,2.94 2.4699,-1.31 0.25,-0.89 m -406.19,23.25 c -2.71,15.97 -4.63,32.22 -3.73,48.44 1.38,15.91 6.66,31.11 9.55,46.7599 3.69,18.14 3.54,36.7401 3.67,55.17 0.07,25.4 -0.73,50.78 -1.55,76.16 -0.25,2.44 -0.22,5.03 -1.17,7.33 -1.22,2.58 -4.78,2.37 -6.22,4.67 0.26,5.35 2.33,10.46 3.31,15.73 1.8,7.22 1.75,14.71 1.84,22.11 0.09,12.67 -0.19,25.34 -0.41,38.0099 -0.37,5.07 1.15,10.01 1.13,15.0601 0.15,3.34 -1.67,7.25 -5.29,7.78 -6.99,0.96 -14.11,-0.87 -21.0699,0.55 -2.6201,0.57 -5.38,1.94 -6.34,4.63 -2.56,6.03 -3.7,12.53 -5.03,18.9 -4.18,22.19 -6.8,44.63 -9.33,67.05 -1.42,12.95 -2.75,25.97 -2.05,39.02 0.3,13.56 3.3,26.83 5.93,40.08 4.63,24.4299 3.05,49.5 -0.85,73.9099 -3.56,23.77 -11.52,46.53 -17.76,69.66 -4.69,18.6 -10.66,36.9301 -13.72,55.91 -0.83,5.1699 -2.11,10.4 -1.49,15.6699 1.07,4.1901 6.12,4.42 9.23,6.41 3.25,1.8101 4.03,5.6801 5.08,8.9401 1.68,4.6499 6.53,6.75 10.05,9.7799 3.68,3.42 8.17,6.6101 9.33,11.8201 50.36,1.02 100.74,0.72 151.11,0.58 27,-0.34 54.01,-0.1599 80.98,-1.5399 1.68,-0.27 4.54,0.3899 4.82,-1.9701 0.62,-4.72 -0.84,-9.34 -1.92,-13.86 0.66,0.34 2,1.03 2.66,1.37 -0.65,-2.63 0.78,-5.28 0.13,-7.9099 -0.64,-3.41 -2.26,-7.16 -0.23,-10.42 4.53,-7.7001 10.37,-14.5701 14.73,-22.37 0.77,-1.51 1.76,-3.28 0.71,-4.9 -2.09,-2.65 -5.47,-4.0599 -7.12,-7.0699 -2.46,-4.79 -2.44,-10.4801 -1.24,-15.6101 1.55,-4.7999 5.86,-8.96 4.65,-14.3899 -3.48,-25.42 -8.55,-50.6001 -12.12,-76.01 -1.57,-9.6001 -2.06,-19.37 -1.06,-29.0601 0.56,-11.39 4.17,-22.64 2.49,-34.0699 -0.18,-2.25 -0.44,-4.64 0.65,-6.7101 1.88,-2.1599 4.96,-2.23 7.44,-3.2999 -2.7,-3.6 -8.12,-5 -9.2,-9.86 -1.32,-6.48 -0.14,-13.67 3.6,-19.18 1.63,-2.34 1.75,-5.35 0.59,-7.91 -7.05,-20.33 -15.28,-40.24 -22.95,-60.34 -6.97,-17.43 -12.93,-35.23 -19.03,-52.97 -8.45,-24.78 -11.37,-52 -5.05,-77.62 2.4,-9.67 7.45,-18.35 11.08,-27.56 2.76,-7.19 4.32,-14.76 5.89,-22.28 1.9,-10.17 4.08,-20.45 3.36,-30.86 -2.48,2.78 -4.67,5.82 -6.64,8.98 -2.86,4.31 -1.5099,10.54 -5.8199,14.03 -5.44,4.17 -12.2401,5.89 -18.31,8.88 -9.54,4.74 -19.75,8.19 -28.71,14.05 -7.09,4.67 -13.01,11.42 -21.33,13.98 -4.97,1.65 -10.82,1.3 -14.99,4.86 -3.82,3.4901 -3.97,9.15 -4.12,13.96 -0.28,3.74 0.98,8.06 -1.69,11.22 -1.06,1.43 -3,3.81 -4.93,2.4 -3.43,-4.03 -5.51,-9.01 -8.58,-13.3 -0.83,-0.79 -1.31,-2.6 -2.7,-2.33 -2.25,1.69 -3.2,5.02 -6.08,5.81 -1.94,-0.55 -2.79,-2.53 -3.53,-4.18 -1.55,-3.99 -2.59,-8.56 -0.97,-12.69 2.0099,-5.83 4.91,-11.3 7.16,-17.03 -1.95,-1.64 -4.67,-2.14 -6.68,-3.77 -2.01,-1.48 -5.54,-3.03 -4.84,-6.05 3.08,-3.21 8.12,-3.53 11.21,-6.82 3.57,-3.66 2.15,-9.7 5.78,-13.33 2.49,-2.71 6.49,-2.63 9.5,-4.44 2.56,-2.01 1.9,-5.75 2.16,-8.61 -0.47,-14.2 -2.17,-28.54 -6.92,-42.01 -10.43,-31.56 -22.02,-62.72 -33.43,-93.93 -3.98,-10.37 -7.03,-21.13 -12.22,-30.99 -3.44,-7.5 -7.57,-14.67 -10.63,-22.34 -2.05,-5.01 -2.73,-10.41 -3.59,-15.71 -0.63,-4.39 -2.81,-8.37 -5.17,-12.05 -1.3602,2.3 -1.3402,5.13 -2.0102,7.68 m -241.3,29.97 c -2.73,3.49 -8.49,3.31 -10.1,7.88 -22.7,44.27 -44.36,89.08 -65.87,133.93 -3.46,7.28 -8.3,14.37 -8.82,22.63 -0.13,7.56 6.91,12.06 9.82,18.4 6.57,14.59 6.28,31.02 5.37,46.67 -0.5,2.48 -0.04,5.74 -2.26,7.48 -2.42,1.37 -5.4,1.28 -8.02,0.66 0.48,3.2 0.5,6.88 -1.85,9.41 -3.79,4.3 -8.68,7.42 -12.83,11.34 -7.72,7.6 -16.6,13.99 -23.8,22.13 -3.31,3.7599 -6.44,7.95 -7.62,12.92 -1.89,8.15 -1.35,16.61 -0.54,24.87 0.06,1.83 1.1,4.97 -1.87,4.68 5.63,15.13 11.73,30.11 16.41,45.58 6.03,22.83 6.68,46.58 9.11,69.95 0.59,7.31 4.59,13.71 6.16,20.77 0.72,2.61 -0.63,5.64 -3.28,6.49 -4.42,1.4901 -9.65,0.48 -13.57,3.45 -6.34,4.71 -10.86,11.32 -15.66,17.4901 -1.15,1.5299 -2.33,3.6799 -1.33,5.58 2.52,4.09 6.98,7.0699 8.07,11.98 0.58,3.04 -1.92,5.4 -4.19,6.9601 -3,2.24 -6.91,3.7 -8.76,7.1699 -1.15,4.1801 2.4,7.38 4.21,10.75 2.55,3.9401 2.42,8.8 2.7,13.3101 0.51,13.6699 0.86,27.36 0.71,41.0499 -2.46,2.4501 -3.46,5.8301 -4.87,8.92 -4.39,10 -8.64,20.0699 -13.24,29.98 -1.81,3.9 -4.84,7.1 -6.58,11.04 -1.88,4.34 4.77,7.14 2.77,11.5 -5.63,9.83 -12.65,18.7899 -18.6,28.4299 -2.39,4.1901 -5.6,8.2101 -6.42,13.0701 1.18,5.4 6.28,8.59 10.15,12.0699 4.15,2.89 2.88,8.63 2.36,12.9 -0.34,2.67 2.31,4.2 4.02,5.76 6.16,4.77 12.97,9.12 20.62,10.97 11.01,0.9401 22.1,0.25 33.14,0.04 26.01,-1.15 52.04,-2.24 77.97,-4.72 4.12,-0.13 6.27,-6.0701 10.42,-4.63 2.26,-5.8501 4.63,-11.7201 8.02,-17.02 4.15,-6.4 10.35,-11 15.86,-16.13 3.49,-3.09 3.6,-8.61 7.68,-11.1901 7.67,-5.2 16.09,-9.7 22,-17.0399 6.86,-7.51 13.2,-16.5601 13.38,-27.12 0,-10.64 -2.44,-21.0701 -4.68,-31.4 -3.43,-14.29 -6.8,-28.64 -11.83,-42.46 -7.24,-20.8101 -16.73,-40.8101 -22.8,-62.03 -4.02,-12.67 -8.06,-25.6201 -8.01,-39.05 -0.18,-10.85 3.95,-21.14 4.58,-31.9 0.99,-15.82 -1.98,-31.48 -3.76,-47.13 -3.44,-23.75 -6.85,-47.54 -12.2,-70.95 -0.84,-2.51 0.53,-6.01 -1.84,-7.77 -6.03,-1.5 -12.63,-0.86 -18.26,-3.82 -2.54,-1.28 -3.33,-4.5699 -2.08,-7.02 2.82,-6.27 8.61,-11.21 9.4,-18.33 1.74,-14.95 2.17,-30 2.83,-45.02 0.24,-9.4 0.62,-18.81 0.14,-28.2 -0.35,-6.56 -8.49,-9.28 -8.75,-15.84 -0.08,-5.5 5.09,-8.97 6.33,-14.06 2.93,-10.36 4.36,-21.21 3.69,-31.98 -0.19,-6.33 -0.83,-12.7 -0.09,-19.02 1.11,-7.23 3.7,-14.2 7.29,-20.56 2.23,-4.17 7.32,-6.31 8.47,-11.13 1.02,-5.04 -0.34,-10.12 -0.29,-15.17 0.63,-2.35 2.58,-4.15 2.82,-6.64 1.11,-7.21 2.25,-14.78 0.16,-21.92 -1.43,-4.31 -2.02,-8.89 -2.15,-13.41 0.2,-5.7 4.83,-9.57 8.72,-13.08 1.15,-1.16 3.39,-2.04 2.84,-4.0601 -0.43,-4.1899 -1.17,-8.37 -2.34,-12.42 -0.49,-1.49 -0.85,-3.16 -2.28,-4.03 -2.64,2.3401 -4.48,5.3801 -6.78,8.0401 m 653.74,214.82 c -1,2.06 -2.12,4.26 -1.73,6.64 1.23,16.63 3.49,33.27 2.7,49.99 -0.35,15.16 -3.0699,30.12 -5.5499,45.05 -3.83,21.57 -7.76,43.15 -13.02,64.43 -1.96,6.85 -3.2,14.43 -8.4,19.72 -6.39,7.41 -16.5499,10.5099 -22.1,18.73 -3.8,5.13 -6.47,11.56 -12.3199,14.78 -3.5901,2.01 -8.5801,3.53 -9.5,8.14 -3.2101,18.23 -3.2201,36.84 -5.1001,55.22 -0.5699,5.67 -2.74,11.15 -2.76,16.86 2.52,8.9301 0.76,18.3101 -0.6699,27.27 -0.1901,2.65 -2.6901,3.86 -4.7001,5.04 1.4801,6.12 5.8401,11.25 6.5,17.63 0.8501,4.52 -1.5499,8.66 -3.1,12.73 -3.9399,9.78 -8.6599,19.66 -8.63,30.4401 0,11.86 -3.22,23.45 -7.48,34.4299 -1.94,4.9 -5.31,9.28 -6.25,14.55 0.04,4.37 5.04,6.6699 5.26,11.0399 0.4401,5.4601 -2.38,10.54 -2.35,15.9701 -0.14,5.0399 1.83,9.99 0.91,15.0499 -0.64,3.39 -1.4,6.8201 -2.89,9.9701 2.3,4.5299 6.42,9 11.5201,10.1399 24.7799,1.39 213.62,1.55 238.4299,2.0601 59.8472,0.1481 7.5938,-230.16 -45.34,-386.2501 m 0,0 c -2.4301,0.94 -4.91,1.95 -7.55,1.24 -2.9299,-0.75 -6.96,-0.24 -8.83,-3.08 1.26,-2 3.58,-2.73 5.6,-3.69 -2.4301,0.14 -6.28,-0.43 -6.52,-3.39 2.78,-2.72 8.42,-2.76 9.4501,-7.08 -0.5801,-4.81 -3.28,-9 -5.54,-13.16 -2.84,-5.65 -11.02,-4.59 -13.95,-10.24 -3.4501,-4.79 -2.51,-12.05 -7.3301,-15.79 -6.02,2.09 -11.84,4.82 -18.03,6.36 -4.2,0.91 -7.0699,-3.54 -7.9199,-7.06 -0.5701,-5.36 3.9299,-10.93 0.87,-16.05 -4.2001,-1.93 -9.9601,-0.68 -13.3,-4.6 -8.52,-10.14 -15.15,-21.68 -22.78,-32.47 -2.6003,-3.4799 -4.2504,-7.8099 -7.6003,-10.6199 m -561.79,76.65 c 0.1,2.5 1.24,5.28 0.11,7.64 -1.96,2.93 -5.94,-0.57 -8.19,1.49 -2.38,9.83 -2.21,20.07 -3.8,30.03 -2.61,16.52 -5.4,33.03 -6.92,49.7 -1.44,15.26 -2.2,30.72 -0.08,45.96 2.89,21.8 9.08,42.96 15.21,64.02 2.8,8.38 1.79,17.38 0.87,25.99 -3.5,23.5701 -6.27,47.26 -6.79,71.1 -0.1801,13.3101 -1.59,27.12 3.02,39.9 2.05,5.54 3.59,11.55 7.66,16.01 2.52,8.0699 4.24,16.37 6.13,24.61 1.23,6.0601 2.45,12.22 2.52,18.4301 -0.02,5.51 -5.84,7.4399 -10.03,9.22 -10.03,4.4399 -21.23,6.33 -30.43,12.55 -3.51,2.22 -5.2401,6.12 -7.9,9.1499 -1.9,2.04 -4.77,2.3401 -7.31,3.0601 -0.17,1.13 2.07,0.62 2.64,1.26 2.71,0.95 5.96,0.76 8.23,2.73 20.91,-0.97 41.86,-1.03 62.77,-2.22 2.79,-0.27 5.67,-0.86 8.07,-2.38 2.62,-1.8201 2.21,-5.4501 2.65,-8.22 0.37,-12.0601 2.02,-24.01 2.93,-36.02 1.56,-25.64 4.06,-51.3101 3,-77.02 -0.41,-10.41 -3.49,-20.4501 -7.37,-30.04 -4.44,-11.01 -7.48,-23.03 -5.58,-34.9399 2.42,-16.7001 7.94,-32.7201 11.97,-49.0601 2.15,-9.13 4.7,-18.56 3.14,-28 -1.95,-13.47 -10.9,-24.65 -13.05,-38.07 -2.17,-13.5099 -1.7401,-27.27 -1.82,-40.9 -0.09,-15.35 0.89,-30.74 -0.58,-46.04 -0.57,-5.87 -0.27,-12.1 -2.87,-17.53 -1.35,-2.86 -4.85,-3.05 -7.59,-2.8 -3.81,0.26 -8.33,0.61 -11.22,-2.39 -4.49,-4.8901 -6.49,-11.3901 -9.39,-17.2201 m -280.8,287.38 c -0.87,7.71 -2.4,15.45 -1.76,23.24 4.56,-3.1801 7.88,-7.86 10.56,-12.65 1.23,-1.8199 0.58,-4.05 -0.7,-5.62 -2.07,-2.36 -4.4,-6.35 -8.1,-4.97 m 681.42,93.64 c -1.45,3.87 0.47,8.0199 0.25,12.0299 -0.3,9.3101 0.21,18.77 -2.08,27.89 -0.34,2.47 -1.66,6.6801 1.67,7.65 4.04,0.79 8.27,0.26 12.21,-0.89 2.06,-3.9 4.1801,-8.1799 3.42,-12.73 -1.18,-11.09 -3.3,-22.0601 -5.03,-33.0601 -0.49,-5.5798 -7.87,-3.9498 -10.44,-0.8898 z"
     id="path3"
     inkscape:connector-curvature="0"
     sodipodi:nodetypes="ccccccccccccccccccccccccccccccccccccccccccccccccccccccccccccccccccccccsccccccccccccccccccccccccccccccccccccccccccccccccccccccccccccccccccccccccccccccccccccccccccccccccccccccccccccccccccccccccccccccccccccccccccccccccccccccccccccccccccccccccccccccccccccccccccccccccccccccccccccccccccccccccccccccccccccccccccccccccccccccccccccccccccccccccccccccccccccccccccccccccccccccccccccccccccscccccccccccccccccc"
     style="fill:#ffffff;fill-opacity:1" /><path
     fill="#FFFFFF"
     stroke="#FFFFFF"
     stroke-width="0.0938"
     d="M1114.97,493.34c2.22-0.42,0.3,3.83-0.25,0.89L1114.97,493.34z"
     id="path5" /><path
     fill="#FFFFFF"
     stroke="#FFFFFF"
     stroke-width="0.0938"
     d="M1424.5699,868.42c1.4601-0.8,2.3401,1.81,1.38,2.76  C1424.46,871.92,1423.64,869.28,1424.5699,868.42z"
     id="path7" /><path
     fill="#FFFFFF"
     stroke="#FFFFFF"
     stroke-width="0.0938"
     d="M1499.85,1029.7c1.36,0.77,2.91,1.62,3.4601,3.2301  c-0.6001,0.5299-1.17,1.09-1.7101,1.6799C1500.99,1032.98,1499.96,1031.46,1499.85,1029.7z"
     id="path9" /><path
     stroke="#000000"
     stroke-width="0.0938"
     d="M1915.7,1265.76c0.3601-2.25,0.24-5.61,2.6901-6.63c0.4,0.85,1.21,2.54,1.61,3.39  v4.97c-0.73-1.52-0.5601-3.9399-2.38-4.5599c-0.1801,0.9399-0.54,2.8099-0.72,3.75C1916.6,1266.45,1916,1265.99,1915.7,1265.76z"
     id="path11" /></svg>