<?xml version="1.0" encoding="UTF-8" standalone="no"?>
<svg
   xmlns:dc="http://purl.org/dc/elements/1.1/"
   xmlns:cc="http://creativecommons.org/ns#"
   xmlns:rdf="http://www.w3.org/1999/02/22-rdf-syntax-ns#"
   xmlns:svg="http://www.w3.org/2000/svg"
   xmlns="http://www.w3.org/2000/svg"
   xmlns:sodipodi="http://sodipodi.sourceforge.net/DTD/sodipodi-0.dtd"
   xmlns:inkscape="http://www.inkscape.org/namespaces/inkscape"
   id="svg4744"
   viewBox="0 0 286.08 292.53"
   version="1.1"
   inkscape:version="0.91 r13725"
   sodipodi:docname="professeur.svg"
   inkscape:export-filename="/home/hake/git/johanhake.github.io/presentations/eksamen_ped/fig/professeur.png"
   inkscape:export-xdpi="200.04019"
   inkscape:export-ydpi="200.04019">
  <defs
     id="defs4285" />
  <sodipodi:namedview
     pagecolor="#000000"
     bordercolor="#666666"
     borderopacity="1"
     objecttolerance="10"
     gridtolerance="10"
     guidetolerance="10"
     inkscape:pageopacity="0"
     inkscape:pageshadow="2"
     inkscape:window-width="1920"
     inkscape:window-height="988"
     id="namedview4283"
     showgrid="false"
     inkscape:zoom="1.6135097"
     inkscape:cx="136.72583"
     inkscape:cy="167.09051"
     inkscape:window-x="0"
     inkscape:window-y="0"
     inkscape:window-maximized="1"
     inkscape:current-layer="g3758" />
  <title
     id="title4788">professeur</title>
  <g
     id="layer1"
     transform="translate(-212.18 -383.05)">
    <g
       id="g3758"
       stroke-linejoin="round"
       stroke-dashoffset="3.003"
       stroke="#000"
       stroke-linecap="round"
       stroke-width="2">
      <path
         id="path3958"
         d="m323.33 373.49 8.122 149.07 188.4 0.86167 5.9734-153.38z"
         style="fill:#ffffff;fill-opacity:1" />
      <path
         id="path3960"
         d="m529.27 518.26-1.6804 12.063h-199.13l-1.6804-12.063z"
         fill="#fff" />
      <path
         id="path3954"
         d="m252.82 670.7c-6.0214 1.7371-9.7318-2.4205-4.7444-6.1879l15.872-14.166c5.7846-56.583 7.9321-95.828 9.1214-152.41l-32.743 43.945 1.183 13.013-3.3372 1.2042-3.8775-3.8775-11.706 9.5217c-4.7561-1.1011-7.8518-3.1846-9.4044-9.0908 3.8259-5.7849 6.6347-8.1408 12.703-13.147l48.044-80.344 35.642-4.4562c11.757-1.3342 55.854-13.556 55.854-13.556l24.092-9.4502s3.111 1.241 1.9764 3.4802c-0.93254 1.8405-5.7216 4.5531-8.9759 6.1076 2.8693 3.3369 0.23605 11.74-0.5618 11.829l-15.619 1.2039s-54.724 28.385-54.747 30.483c4.675 58.019 6.0539 105.05 15.301 163.06l16.648 19.601c4.3746 4.1492 3.7068 6.4076-1.1077 7.1109l-38.344-11.202-9.1214-94.531-10.697 93.67z"
         fill="#fff" />
      <path
         id="path3956"
         d="m311 431.13c1.0245 9.1329-1.2507 19.337-8.6513 26.035-5.3276 4.5992-14.241 4.4946-19.245-0.10533-7.619-5.9272-10.692-15.553-11.005-24.686-0.1526-8.2322 2.4881-17.147 9.2872-22.91 4.8444-3.7697 12.318-4.2635 17.22-0.70087 7.8248 4.8653 11.373 13.847 12.394 22.367z"
         fill="#fff" />
    </g>
  </g>
  <metadata
     id="metadata4281">
    <rdf:RDF>
      <cc:Work>
        <dc:format>image/svg+xml</dc:format>
        <dc:type
           rdf:resource="http://purl.org/dc/dcmitype/StillImage" />
        <cc:license
           rdf:resource="http://creativecommons.org/publicdomain/zero/1.0/" />
        <dc:publisher>
          <cc:Agent
             rdf:about="http://openclipart.org/">
            <dc:title>Openclipart</dc:title>
          </cc:Agent>
        </dc:publisher>
        <dc:title>Presentation</dc:title>
        <dc:date>2013-10-08T20:40:34</dc:date>
        <dc:description>presentation/presenter line-art pictogram </dc:description>
        <dc:source>https://openclipart.org/detail/184690/presentation-by-ousia-184690</dc:source>
        <dc:creator>
          <cc:Agent>
            <dc:title>ousia</dc:title>
          </cc:Agent>
        </dc:creator>
        <dc:subject>
          <rdf:Bag>
            <rdf:li>presentation</rdf:li>
            <rdf:li>teach</rdf:li>
          </rdf:Bag>
        </dc:subject>
      </cc:Work>
      <cc:License
         rdf:about="http://creativecommons.org/publicdomain/zero/1.0/">
        <cc:permits
           rdf:resource="http://creativecommons.org/ns#Reproduction" />
        <cc:permits
           rdf:resource="http://creativecommons.org/ns#Distribution" />
        <cc:permits
           rdf:resource="http://creativecommons.org/ns#DerivativeWorks" />
      </cc:License>
    </rdf:RDF>
  </metadata>
</svg>
