<?xml version="1.0" encoding="UTF-8" standalone="no"?>
<!-- Created with Inkscape (http://www.inkscape.org/) -->

<svg
   xmlns:dc="http://purl.org/dc/elements/1.1/"
   xmlns:cc="http://creativecommons.org/ns#"
   xmlns:rdf="http://www.w3.org/1999/02/22-rdf-syntax-ns#"
   xmlns:svg="http://www.w3.org/2000/svg"
   xmlns="http://www.w3.org/2000/svg"
   xmlns:sodipodi="http://sodipodi.sourceforge.net/DTD/sodipodi-0.dtd"
   xmlns:inkscape="http://www.inkscape.org/namespaces/inkscape"
   id="svg4679"
   version="1.1"
   inkscape:version="0.91 r13725"
   xml:space="preserve"
   width="540"
   height="313.75"
   viewBox="0 0 540 313.75"
   sodipodi:docname="AP_Ca_contraction.svg"><metadata
     id="metadata4685"><rdf:RDF><cc:Work
         rdf:about=""><dc:format>image/svg+xml</dc:format><dc:type
           rdf:resource="http://purl.org/dc/dcmitype/StillImage" /><dc:title></dc:title></cc:Work></rdf:RDF></metadata><defs
     id="defs4683" /><sodipodi:namedview
     pagecolor="#ffffff"
     bordercolor="#666666"
     borderopacity="1"
     objecttolerance="10"
     gridtolerance="10"
     guidetolerance="10"
     inkscape:pageopacity="0"
     inkscape:pageshadow="2"
     inkscape:window-width="1920"
     inkscape:window-height="971"
     id="namedview4681"
     showgrid="false"
     inkscape:zoom="1.5043825"
     inkscape:cx="448.69944"
     inkscape:cy="97.449287"
     inkscape:window-x="0"
     inkscape:window-y="0"
     inkscape:window-maximized="1"
     inkscape:current-layer="g4689" /><g
     id="g4687"
     inkscape:groupmode="layer"
     inkscape:label="AP_Ca_contraction"
     transform="matrix(1.25,0,0,-1.25,0,313.75)"><g
       id="g4689"
       transform="scale(0.1,0.1)"><path
         d="m 4306.788,421.23344 c -126.15,8.274 -1112.04,37.77 -1398.67,164.48104 -332.35,169.562 -403.13,411.319 -560.31,712.71902 -156.58,300.22 -340.55,803.95 -512.45,806.66 -171.9,2.71 -335.57,-289.26 -533.04,-648.29 -197.46,-359.03 -398.07399,-786.30406 -731.95999,-1033.42502 -138.481,2.672 -452.145,1.43 -452.145,1.43"
         style="fill:none;stroke:#000000;stroke-width:32;stroke-linecap:butt;stroke-linejoin:miter;stroke-miterlimit:10;stroke-dasharray:96, 32;stroke-dashoffset:0;stroke-opacity:1"
         id="path4693-5"
         inkscape:connector-curvature="0" /><path
         d="m 116.78301,422.23344 324.29,4.28504 c 0,0 82.648,1026.34502 125.71,1197.14502 43.153,171.14 146.141,657.3 310,677.14 163.68499,19.83 543.76499,-470.19 718.57499,-692.85 174.26,-221.98 687.51,-704.57902 1152.86,-847.14502 465.34,-142.57104 925.26,-251.672 1538.57,-290.71504"
         style="fill:none;stroke:#000000;stroke-width:32;stroke-linecap:butt;stroke-linejoin:miter;stroke-miterlimit:10;stroke-dasharray:none;stroke-opacity:1"
         id="path4695-6"
         inkscape:connector-curvature="0" /><path
         d="m 110.285,433.715 320,1.715 4.285,1914.28 c 0,0 37.223,-320.63 58.575,-317.14 21.531,3.52 47.179,51.16 74.285,51.43 40.726,0.4 310.394,-226.43 400,-320 80.12,-83.66 330.16,-556.76 417.14,-697.14 60.46,-97.583 146.91,-560.833 165.72,-594.29 19.16,-34.082 2748.57,-40 2748.57,-40"
         style="fill:none;stroke:#000000;stroke-width:32;stroke-linecap:butt;stroke-linejoin:miter;stroke-miterlimit:10;stroke-dasharray:none;stroke-opacity:1"
         id="path4691"
         inkscape:connector-curvature="0" /><path
         d="m 4298.86,431.57 c -126.15,8.274 -1112.04,37.77 -1398.67,164.481 -332.35,169.562 -403.13,411.319 -560.31,712.719 -156.58,300.22 -340.55,803.95 -512.45,806.66 -171.9,2.71 -335.57,-289.26 -533.04,-648.29 C 1096.93,1108.11 896.316,680.836 562.43,433.715 c -138.481,2.672 -452.145,1.43 -452.145,1.43"
         style="fill:none;stroke:#ff0000;stroke-width:32;stroke-linecap:butt;stroke-linejoin:miter;stroke-miterlimit:10;stroke-dasharray:96, 32;stroke-dashoffset:0;stroke-opacity:1"
         id="path4693"
         inkscape:connector-curvature="0" /><path
         d="m 108.855,432.57 324.29,4.285 c 0,0 82.648,1026.345 125.71,1197.145 43.153,171.14 146.141,657.3 310,677.14 163.685,19.83 543.765,-470.19 718.575,-692.85 174.26,-221.98 687.51,-704.579 1152.86,-847.145 465.34,-142.571 925.26,-251.672 1538.57,-290.715"
         style="fill:none;stroke:#00a8ff;stroke-width:32;stroke-linecap:butt;stroke-linejoin:miter;stroke-miterlimit:10;stroke-dasharray:none;stroke-opacity:1"
         id="path4695"
         inkscape:connector-curvature="0" /><path
         d="m 413.145,324 868.565,0"
         style="fill:none;stroke:#000000;stroke-width:32;stroke-linecap:butt;stroke-linejoin:miter;stroke-miterlimit:10;stroke-dasharray:none;stroke-opacity:1"
         id="path4697"
         inkscape:connector-curvature="0" /><path
         d="m 1153.14,2453.25 -44.64,0 0,-225.84 44.64,0 0,17.28 -24.72,0 0,191.27 24.72,0 0,17.29"
         style="fill:#000000;fill-opacity:1;fill-rule:nonzero;stroke:none"
         id="path4699"
         inkscape:connector-curvature="0" /><path
         d="m 1318.59,2399 c -6.97,38.41 -29.04,57.12 -67.45,57.12 -23.52,0 -42.48,-7.43 -55.43,-21.83 -15.85,-17.29 -24.48,-42.24 -24.48,-70.56 0,-28.8 8.88,-53.52 25.43,-70.57 13.45,-13.91 30.73,-20.39 53.52,-20.39 42.73,0 66.73,23.03 72,69.35 l -23.04,0 c -1.91,-12 -4.32,-20.16 -7.91,-27.12 -7.21,-14.39 -22.09,-22.55 -40.8,-22.55 -34.81,0 -56.88,27.84 -56.88,71.51 0,44.89 21.11,72.49 54.95,72.49 14.16,0 27.36,-4.33 34.57,-11.04 6.48,-6 10.07,-13.45 12.72,-26.41 l 22.8,0"
         style="fill:#000000;fill-opacity:1;fill-rule:nonzero;stroke:none"
         id="path4701"
         inkscape:connector-curvature="0" /><path
         d="m 1461.54,2290.05 c -2.16,-0.48 -3.12,-0.48 -4.32,-0.48 -6.96,0 -10.8,3.59 -10.8,9.84 l 0,73.91 c 0,22.32 -16.32,34.32 -47.28,34.32 -18.24,0 -33.36,-5.27 -41.76,-14.64 -5.76,-6.47 -8.16,-13.68 -8.64,-26.15 l 20.16,0 c 1.68,15.36 10.8,22.31 29.52,22.31 18,0 28.08,-6.71 28.08,-18.71 l 0,-5.29 c 0,-8.39 -5.04,-12 -20.88,-13.91 -28.32,-3.61 -32.64,-4.56 -40.32,-7.68 -14.64,-6 -22.08,-17.28 -22.08,-33.61 0,-22.8 15.84,-37.19 41.28,-37.19 15.84,0 28.56,5.52 42.72,18.48 1.44,-12.72 7.68,-18.48 20.64,-18.48 4.08,0 7.2,0.48 13.68,2.16 l 0,15.12 m -35.04,27.84 c 0,-6.73 -1.92,-10.8 -7.92,-16.32 -8.16,-7.45 -18,-11.28 -29.76,-11.28 -15.6,0 -24.72,7.44 -24.72,20.16 0,13.19 8.88,19.92 30.24,23.03 21.12,2.89 25.44,3.84 32.16,6.97 l 0,-22.56"
         style="fill:#000000;fill-opacity:1;fill-rule:nonzero;stroke:none"
         id="path4703"
         inkscape:connector-curvature="0" /><path
         d="m 1472.26,2227.41 44.63,0 0,225.84 -44.63,0 0,-17.29 24.72,0 0,-191.27 -24.72,0 0,-17.28"
         style="fill:#000000;fill-opacity:1;fill-rule:nonzero;stroke:none"
         id="path4705"
         inkscape:connector-curvature="0" /><path
         d="m 1557.14,2287.84 -13.28,0 0,-83.84 13.28,0 0,83.84 m 0,32.8 -13.44,0 0,-16.8 13.44,0 0,16.8"
         style="fill:#000000;fill-opacity:1;fill-rule:nonzero;stroke:none"
         id="path4707"
         inkscape:connector-curvature="0" /><path
         d="m 109.762,2210.85 18,-52.56 24.957,0 -61.4378,174.96 -28.8007,0 -62.402375,-174.96 23.761675,0 18.4805,52.56 67.4417,0 m -6.242,18.72 -55.6802,0 28.8008,79.68 26.8794,-79.68"
         style="fill:#000000;fill-opacity:1;fill-rule:nonzero;stroke:none"
         id="path4709"
         inkscape:connector-curvature="0" /><path
         d="m 200.473,2232.45 54.961,0 c 13.679,0 24.48,4.08 33.839,12.48 10.559,9.6 15.118,20.87 15.118,36.96 0,32.88 -19.438,51.36 -54,51.36 l -72.239,0 0,-174.96 22.321,0 0,74.16 m 0,19.67 0,61.45 46.558,0 c 21.36,0 34.082,-11.52 34.082,-30.72 0,-19.21 -12.722,-30.73 -34.082,-30.73 l -46.558,0"
         style="fill:#000000;fill-opacity:1;fill-rule:nonzero;stroke:none"
         id="path4711"
         inkscape:connector-curvature="0" /><path
         d="m 671.727,127.738 -89.52,0 c 2.16,13.918 9.84,22.801 30.719,35.039 l 24,12.961 c 23.762,12.961 36,30.481 36,51.36 0,14.16 -5.762,27.359 -15.84,36.48 -10.082,9.121 -22.559,13.438 -38.641,13.438 -21.597,0 -37.679,-7.68 -47.039,-22.078 -6,-9.122 -8.64,-19.68 -9.121,-36.961 l 21.121,0 c 0.719,11.519 2.16,18.48 5.039,24 5.52,10.32 16.559,16.562 29.282,16.562 19.199,0 33.597,-13.684 33.597,-31.922 0,-13.441 -7.918,-24.961 -23.039,-33.601 l -22.078,-12.477 c -35.519,-20.16 -45.84,-36.242 -47.762,-73.684 l 113.282,0 0,20.883"
         style="fill:#000000;fill-opacity:1;fill-rule:nonzero;stroke:none"
         id="path4713"
         inkscape:connector-curvature="0" /><path
         d="m 749.879,277.016 c -15.84,0 -30.238,-6.957 -39.121,-18.719 -11.039,-14.879 -16.559,-37.68 -16.559,-69.121 0,-57.36 19.199,-87.84 55.68,-87.84 36,0 55.68,30.48 55.68,86.402 0,33.117 -5.278,55.2 -16.559,70.559 -8.879,12 -23.039,18.719 -39.121,18.719 m 0,-18.719 c 22.801,0 34.082,-23.039 34.082,-68.641 0,-48.238 -11.043,-70.801 -34.563,-70.801 -22.32,0 -33.597,23.524 -33.597,70.083 0,46.558 11.277,69.359 34.078,69.359"
         style="fill:#000000;fill-opacity:1;fill-rule:nonzero;stroke:none"
         id="path4715"
         inkscape:connector-curvature="0" /><path
         d="m 883.473,277.016 c -15.84,0 -30.239,-6.957 -39.121,-18.719 -11.04,-14.879 -16.559,-37.68 -16.559,-69.121 0,-57.36 19.199,-87.84 55.68,-87.84 36,0 55.679,30.48 55.679,86.402 0,33.117 -5.277,55.2 -16.558,70.559 -8.879,12 -23.039,18.719 -39.121,18.719 m 0,-18.719 c 22.8,0 34.082,-23.039 34.082,-68.641 0,-48.238 -11.043,-70.801 -34.563,-70.801 -22.32,0 -33.597,23.524 -33.597,70.083 0,46.558 11.277,69.359 34.078,69.359"
         style="fill:#000000;fill-opacity:1;fill-rule:nonzero;stroke:none"
         id="path4717"
         inkscape:connector-curvature="0" /><path
         d="m 1034.43,232.617 0,-125.762 20.16,0 0,78.961 c 0,18.243 13.2,32.883 29.52,32.883 14.88,0 23.28,-9.121 23.28,-25.203 l 0,-86.641 20.16,0 0,78.961 c 0,18.243 13.2,32.883 29.52,32.883 14.64,0 23.28,-9.363 23.28,-25.203 l 0,-86.641 20.16,0 0,94.321 c 0,22.562 -12.96,35.043 -36.48,35.043 -16.8,0 -26.88,-5.043 -38.64,-19.203 -7.44,13.441 -17.52,19.203 -33.84,19.203 -16.8,0 -27.84,-6.242 -38.64,-21.364 l 0,17.762 -18.48,0"
         style="fill:#000000;fill-opacity:1;fill-rule:nonzero;stroke:none"
         id="path4719"
         inkscape:connector-curvature="0" /><path
         d="m 1322.91,197.578 c -0.25,24.719 -16.57,38.641 -45.61,38.641 -29.27,0 -48.23,-15.121 -48.23,-38.403 0,-19.679 10.07,-29.039 39.84,-36.238 l 18.71,-4.562 c 13.93,-3.36 19.45,-8.399 19.45,-17.52 0,-11.758 -11.77,-19.68 -29.28,-19.68 -10.81,0 -19.92,3.122 -24.97,8.403 -3.11,3.597 -4.55,7.199 -5.75,16.078 l -21.12,0 c 0.96,-29.039 17.28,-42.961 50.16,-42.961 31.68,0 51.84,15.602 51.84,39.84 0,18.722 -10.56,29.043 -35.52,35.043 l -19.2,4.558 c -16.32,3.84 -23.28,9.121 -23.28,18 0,11.52 10.32,18.961 26.64,18.961 16.07,0 24.71,-6.961 25.2,-20.16 l 21.12,0"
         style="fill:#000000;fill-opacity:1;fill-rule:nonzero;stroke:none"
         id="path4721"
         inkscape:connector-curvature="0" /><path
         d="m 2509.16,1553.29 c -6.95,38.4 -29.04,57.12 -67.43,57.12 -23.52,0 -42.48,-7.44 -55.44,-21.84 -15.84,-17.28 -24.49,-42.24 -24.49,-70.56 0,-28.8 8.89,-53.52 25.45,-70.56 13.44,-13.92 30.71,-20.4 53.52,-20.4 42.71,0 66.71,23.04 72,69.36 l -23.04,0 c -1.93,-12 -4.32,-20.16 -7.93,-27.12 -7.19,-14.4 -22.07,-22.56 -40.8,-22.56 -34.79,0 -56.88,27.84 -56.88,71.52 0,44.88 21.13,72.48 54.97,72.48 14.16,0 27.36,-4.32 34.55,-11.04 6.48,-6 10.09,-13.44 12.73,-26.4 l 22.79,0"
         style="fill:#000000;fill-opacity:1;fill-rule:nonzero;stroke:none"
         id="path4723"
         inkscape:connector-curvature="0" /><path
         d="m 2589,1561.93 c -35.28,0 -56.64,-25.2 -56.64,-67.44 0,-42.24 21.12,-67.44 56.88,-67.44 35.28,0 56.88,25.2 56.88,66.48 0,43.44 -20.88,68.4 -57.12,68.4 m 0.24,-18.48 c 22.56,0 36,-18.48 36,-49.68 0,-29.52 -13.92,-48.24 -36,-48.24 -22.32,0 -36,18.48 -36,48.96 0,30.24 13.68,48.96 36,48.96"
         style="fill:#000000;fill-opacity:1;fill-rule:nonzero;stroke:none"
         id="path4725"
         inkscape:connector-curvature="0" /><path
         d="m 2674.12,1558.33 0,-125.76 20.16,0 0,69.36 c 0,25.68 13.44,42.48 34.08,42.48 15.84,0 25.92,-9.6 25.92,-24.72 l 0,-87.12 19.92,0 0,95.04 c 0,20.88 -15.6,34.32 -39.84,34.32 -18.72,0 -30.72,-7.2 -41.76,-24.72 l 0,21.12 -18.48,0"
         style="fill:#000000;fill-opacity:1;fill-rule:nonzero;stroke:none"
         id="path4727"
         inkscape:connector-curvature="0" /><path
         d="m 2851.87,1558.33 -20.64,0 0,34.56 -19.92,0 0,-34.56 -17.04,0 0,-16.32 17.04,0 0,-95.04 c 0,-12.72 8.64,-19.92 24.24,-19.92 4.8,0 9.6,0.48 16.32,1.68 l 0,16.8 c -2.64,-0.72 -5.76,-0.96 -9.6,-0.96 -8.64,0 -11.04,2.4 -11.04,11.28 l 0,86.16 20.64,0 0,16.32"
         style="fill:#000000;fill-opacity:1;fill-rule:nonzero;stroke:none"
         id="path4729"
         inkscape:connector-curvature="0" /><path
         d="m 2874.04,1558.33 0,-125.76 20.15,0 0,65.28 c 0,18 4.56,29.76 14.16,36.72 6.24,4.56 12.24,6 26.16,6.24 l 0,20.4 c -3.36,0.48 -5.04,0.72 -7.68,0.72 -12.95,0 -22.79,-7.68 -34.32,-26.4 l 0,22.8 -18.47,0"
         style="fill:#000000;fill-opacity:1;fill-rule:nonzero;stroke:none"
         id="path4731"
         inkscape:connector-curvature="0" /><path
         d="m 3066.03,1444.33 c -2.16,-0.48 -3.12,-0.48 -4.32,-0.48 -6.96,0 -10.8,3.6 -10.8,9.84 l 0,73.92 c 0,22.32 -16.32,34.32 -47.28,34.32 -18.24,0 -33.36,-5.28 -41.76,-14.64 -5.76,-6.48 -8.16,-13.68 -8.64,-26.16 l 20.16,0 c 1.68,15.36 10.8,22.32 29.52,22.32 18,0 28.08,-6.72 28.08,-18.72 l 0,-5.28 c 0,-8.4 -5.04,-12 -20.88,-13.92 -28.32,-3.6 -32.64,-4.56 -40.32,-7.68 -14.64,-6 -22.08,-17.28 -22.08,-33.6 0,-22.8 15.84,-37.2 41.28,-37.2 15.84,0 28.56,5.52 42.72,18.48 1.44,-12.72 7.68,-18.48 20.64,-18.48 4.08,0 7.2,0.48 13.68,2.16 l 0,15.12 m -35.04,27.84 c 0,-6.72 -1.92,-10.8 -7.92,-16.32 -8.16,-7.44 -18,-11.28 -29.76,-11.28 -15.6,0 -24.72,7.44 -24.72,20.16 0,13.2 8.88,19.92 30.24,23.04 21.12,2.88 25.44,3.84 32.16,6.96 l 0,-22.56"
         style="fill:#000000;fill-opacity:1;fill-rule:nonzero;stroke:none"
         id="path4733"
         inkscape:connector-curvature="0" /><path
         d="m 3184.26,1516.09 c -0.96,12.24 -3.6,20.16 -8.4,27.12 -8.64,11.76 -23.76,18.72 -41.28,18.72 -33.84,0 -55.92,-26.88 -55.92,-68.64 0,-40.56 21.6,-66.24 55.68,-66.24 30,0 48.96,18 51.36,48.72 l -20.16,0 c -3.36,-20.16 -13.68,-30.24 -30.72,-30.24 -22.08,0 -35.28,18 -35.28,47.76 0,31.44 12.96,50.16 34.8,50.16 16.8,0 27.36,-9.84 29.76,-27.36 l 20.16,0"
         style="fill:#000000;fill-opacity:1;fill-rule:nonzero;stroke:none"
         id="path4735"
         inkscape:connector-curvature="0" /><path
         d="m 3252.18,1558.33 -20.64,0 0,34.56 -19.92,0 0,-34.56 -17.04,0 0,-16.32 17.04,0 0,-95.04 c 0,-12.72 8.64,-19.92 24.24,-19.92 4.8,0 9.6,0.48 16.32,1.68 l 0,16.8 c -2.64,-0.72 -5.76,-0.96 -9.6,-0.96 -8.64,0 -11.04,2.4 -11.04,11.28 l 0,86.16 20.64,0 0,16.32"
         style="fill:#000000;fill-opacity:1;fill-rule:nonzero;stroke:none"
         id="path4737"
         inkscape:connector-curvature="0" /><path
         d="m 3293.79,1558.33 -19.92,0 0,-125.76 19.92,0 0,125.76 m 0,49.2 -20.17,0 0,-25.2 20.17,0 0,25.2"
         style="fill:#000000;fill-opacity:1;fill-rule:nonzero;stroke:none"
         id="path4739"
         inkscape:connector-curvature="0" /><path
         d="m 3376.5,1561.93 c -35.28,0 -56.64,-25.2 -56.64,-67.44 0,-42.24 21.12,-67.44 56.88,-67.44 35.28,0 56.88,25.2 56.88,66.48 0,43.44 -20.88,68.4 -57.12,68.4 m 0.24,-18.48 c 22.56,0 36,-18.48 36,-49.68 0,-29.52 -13.92,-48.24 -36,-48.24 -22.32,0 -36,18.48 -36,48.96 0,30.24 13.68,48.96 36,48.96"
         style="fill:#000000;fill-opacity:1;fill-rule:nonzero;stroke:none"
         id="path4741"
         inkscape:connector-curvature="0" /><path
         d="m 3461.62,1558.33 0,-125.76 20.16,0 0,69.36 c 0,25.68 13.44,42.48 34.08,42.48 15.84,0 25.92,-9.6 25.92,-24.72 l 0,-87.12 19.92,0 0,95.04 c 0,20.88 -15.6,34.32 -39.84,34.32 -18.72,0 -30.72,-7.2 -41.76,-24.72 l 0,21.12 -18.48,0"
         style="fill:#000000;fill-opacity:1;fill-rule:nonzero;stroke:none"
         id="path4743"
         inkscape:connector-curvature="0" /><path
         d="m 96.670296,440.25628 319.999964,1.71496 4.285,1914.28006 c 0,0 37.223,-320.63 58.575,-317.14 21.531,3.52 47.179,51.16 74.285,51.43 40.726,0.4 310.394,-226.43 399.99997,-320 80.11997,-83.66 330.15997,-556.76 417.13997,-697.14 60.46,-97.58303 146.91,-560.83302 165.72,-594.29006 19.16,-34.082 2748.57,-40 2748.57,-40"
         style="fill:none;stroke:#ffffff;stroke-width:32;stroke-linecap:butt;stroke-linejoin:miter;stroke-miterlimit:10;stroke-dasharray:none;stroke-opacity:1"
         id="path4691-0"
         inkscape:connector-curvature="0" /><path
         d="m 1146.8375,2454.2308 -44.64,0 0,-225.84 44.64,0 0,17.28 -24.72,0 0,191.27 24.72,0 0,17.29"
         style="fill:#ffffff;fill-opacity:1;fill-rule:nonzero;stroke:none"
         id="path4699-7"
         inkscape:connector-curvature="0" /><path
         d="m 1312.2875,2399.9808 c -6.97,38.41 -29.04,57.12 -67.45,57.12 -23.52,0 -42.48,-7.43 -55.43,-21.83 -15.85,-17.29 -24.48,-42.24 -24.48,-70.56 0,-28.8 8.88,-53.52 25.43,-70.57 13.45,-13.91 30.73,-20.39 53.52,-20.39 42.73,0 66.73,23.03 72,69.35 l -23.04,0 c -1.91,-12 -4.32,-20.16 -7.91,-27.12 -7.21,-14.39 -22.09,-22.55 -40.8,-22.55 -34.81,0 -56.88,27.84 -56.88,71.51 0,44.89 21.11,72.49 54.95,72.49 14.16,0 27.36,-4.33 34.57,-11.04 6.48,-6 10.07,-13.45 12.72,-26.41 l 22.8,0"
         style="fill:#ffffff;fill-opacity:1;fill-rule:nonzero;stroke:none"
         id="path4701-9"
         inkscape:connector-curvature="0" /><path
         d="m 1455.2375,2291.0308 c -2.16,-0.48 -3.12,-0.48 -4.32,-0.48 -6.96,0 -10.8,3.59 -10.8,9.84 l 0,73.91 c 0,22.32 -16.32,34.32 -47.28,34.32 -18.24,0 -33.36,-5.27 -41.76,-14.64 -5.76,-6.47 -8.16,-13.68 -8.64,-26.15 l 20.16,0 c 1.68,15.36 10.8,22.31 29.52,22.31 18,0 28.08,-6.71 28.08,-18.71 l 0,-5.29 c 0,-8.39 -5.04,-12 -20.88,-13.91 -28.32,-3.61 -32.64,-4.56 -40.32,-7.68 -14.64,-6 -22.08,-17.28 -22.08,-33.61 0,-22.8 15.84,-37.19 41.28,-37.19 15.84,0 28.56,5.52 42.72,18.48 1.44,-12.72 7.68,-18.48 20.64,-18.48 4.08,0 7.2,0.48 13.68,2.16 l 0,15.12 m -35.04,27.84 c 0,-6.73 -1.92,-10.8 -7.92,-16.32 -8.16,-7.45 -18,-11.28 -29.76,-11.28 -15.6,0 -24.72,7.44 -24.72,20.16 0,13.19 8.88,19.92 30.24,23.03 21.12,2.89 25.44,3.84 32.16,6.97 l 0,-22.56"
         style="fill:#ffffff;fill-opacity:1;fill-rule:nonzero;stroke:none"
         id="path4703-9"
         inkscape:connector-curvature="0" /><path
         d="m 1465.9575,2228.3908 44.63,0 0,225.84 -44.63,0 0,-17.29 24.72,0 0,-191.27 -24.72,0 0,-17.28"
         style="fill:#ffffff;fill-opacity:1;fill-rule:nonzero;stroke:none"
         id="path4705-0"
         inkscape:connector-curvature="0" /><path
         d="m 1550.8375,2288.8208 -13.28,0 0,-83.84 13.28,0 0,83.84 m 0,32.8 -13.44,0 0,-16.8 13.44,0 0,16.8"
         style="fill:#ffffff;fill-opacity:1;fill-rule:nonzero;stroke:none"
         id="path4707-0"
         inkscape:connector-curvature="0" /><path
         d="m 103.45952,2211.8308 18,-52.56 24.957,0 -61.4378,174.96 -28.8007,0 -62.4023997,-174.96 23.7616997,0 18.4805,52.56 67.4417,0 m -6.242,18.72 -55.6802,0 28.8008,79.68 26.8794,-79.68"
         style="fill:#ffffff;fill-opacity:1;fill-rule:nonzero;stroke:none"
         id="path4709-3"
         inkscape:connector-curvature="0" /><path
         d="m 194.17052,2233.4308 54.961,0 c 13.679,0 24.48,4.08 33.839,12.48 10.559,9.6 15.118,20.87 15.118,36.96 0,32.88 -19.438,51.36 -54,51.36 l -72.239,0 0,-174.96 22.321,0 0,74.16 m 0,19.67 0,61.45 46.558,0 c 21.36,0 34.082,-11.52 34.082,-30.72 0,-19.21 -12.722,-30.73 -34.082,-30.73 l -46.558,0"
         style="fill:#ffffff;fill-opacity:1;fill-rule:nonzero;stroke:none"
         id="path4711-1"
         inkscape:connector-curvature="0" /><path
         d="m 665.42449,128.71885 -89.51997,0 c 2.16,13.918 9.84,22.80096 30.719,35.03904 l 23.99997,12.96096 c 23.762,12.96104 36,30.48104 36,51.36 0,14.16 -5.762,27.35904 -15.84,36.48 -10.082,9.12104 -22.559,13.438 -38.64097,13.438 -21.597,0 -37.679,-7.68 -47.039,-22.078 -6,-9.122 -8.64,-19.68 -9.121,-36.96096 l 21.121,0 c 0.719,11.51896 2.16,18.48 5.039,24 5.52,10.32 16.559,16.562 29.282,16.562 19.19897,0 33.59697,-13.684 33.59697,-31.922 0,-13.44104 -7.918,-24.96104 -23.039,-33.60104 l -22.07797,-12.47696 c -35.519,-20.16 -45.84,-36.242 -47.762,-73.684 l 113.28197,0 0,20.88296"
         style="fill:#ffffff;fill-opacity:1;fill-rule:nonzero;stroke:none"
         id="path4713-8"
         inkscape:connector-curvature="0" /><path
         d="m 743.57649,277.99685 c -15.84,0 -30.238,-6.95696 -39.121,-18.71896 -11.039,-14.87904 -16.559,-37.68 -16.559,-69.12104 0,-57.36 19.199,-87.84 55.68,-87.84 36,0 55.68001,30.48 55.68001,86.402 0,33.11704 -5.278,55.2 -16.55901,70.55904 -8.879,12 -23.039,18.71896 -39.121,18.71896 m 0,-18.71896 c 22.801,0 34.082,-23.03904 34.082,-68.64104 0,-48.238 -11.043,-70.80096 -34.563,-70.80096 -22.32,0 -33.597,23.524 -33.597,70.08296 0,46.558 11.277,69.35904 34.078,69.35904"
         style="fill:#ffffff;fill-opacity:1;fill-rule:nonzero;stroke:none"
         id="path4715-6"
         inkscape:connector-curvature="0" /><path
         d="m 877.1705,277.99685 c -15.84,0 -30.23904,-6.95696 -39.12104,-18.71896 -11.04,-14.87904 -16.55896,-37.68 -16.55896,-69.12104 0,-57.36 19.19896,-87.84 55.68,-87.84 36,0 55.67896,30.48 55.67896,86.402 0,33.11704 -5.27696,55.2 -16.558,70.55904 -8.87896,12 -23.03896,18.71896 -39.12096,18.71896 m 0,-18.71896 c 22.8,0 34.082,-23.03904 34.082,-68.64104 0,-48.238 -11.04304,-70.80096 -34.56304,-70.80096 -22.32,0 -33.59696,23.524 -33.59696,70.08296 0,46.558 11.27696,69.35904 34.078,69.35904"
         style="fill:#ffffff;fill-opacity:1;fill-rule:nonzero;stroke:none"
         id="path4717-9"
         inkscape:connector-curvature="0" /><path
         d="m 1028.1275,233.59789 0,-125.762 20.16,0 0,78.96096 c 0,18.24304 13.2,32.88304 29.52,32.88304 14.88,0 23.28,-9.12104 23.28,-25.20304 l 0,-86.64096 20.16,0 0,78.96096 c 0,18.24304 13.2,32.88304 29.52,32.88304 14.64,0 23.28,-9.36304 23.28,-25.20304 l 0,-86.64096 20.16,0 0,94.32096 c 0,22.562 -12.96,35.04304 -36.48,35.04304 -16.8,0 -26.88,-5.04304 -38.64,-19.20304 -7.44,13.44104 -17.52,19.20304 -33.84,19.20304 -16.8,0 -27.84,-6.242 -38.64,-21.364 l 0,17.762 -18.48,0"
         style="fill:#ffffff;fill-opacity:1;fill-rule:nonzero;stroke:none"
         id="path4719-1"
         inkscape:connector-curvature="0" /><path
         d="m 1316.6075,198.55885 c -0.2496,24.71904 -16.57,38.64104 -45.61,38.64104 -29.27,0 -48.23,-15.12104 -48.23,-38.40304 0,-19.67896 10.07,-29.03896 39.84,-36.238 l 18.71,-4.562 c 13.93,-3.36 19.45,-8.39896 19.45,-17.52 0,-11.758 -11.77,-19.68 -29.28,-19.68 -10.81,0 -19.92,3.122 -24.97,8.40304 -3.11,3.59696 -4.55,7.19896 -5.75,16.078 l -21.12,0 c 0.96,-29.03904 17.28,-42.96104 50.16,-42.96104 31.68,0 51.84,15.602 51.84,39.84 0,18.722 -10.56,29.04304 -35.52,35.04304 l -19.2,4.558 c -16.32,3.84 -23.28,9.12096 -23.28,18 0,11.52 10.32,18.96096 26.64,18.96096 16.07,0 24.71,-6.96096 25.2,-20.16 l 21.12,0"
         style="fill:#ffffff;fill-opacity:1;fill-rule:nonzero;stroke:none"
         id="path4721-1"
         inkscape:connector-curvature="0" /><path
         d="m 2502.8575,1554.2709 c -6.95,38.4 -29.04,57.12 -67.43,57.12 -23.52,0 -42.48,-7.44 -55.44,-21.84 -15.84,-17.28 -24.49,-42.24 -24.49,-70.56 0,-28.8 8.89,-53.52 25.45,-70.56 13.44,-13.92 30.71,-20.4 53.52,-20.4 42.71,0 66.71,23.04 72,69.36 l -23.04,0 c -1.93,-12 -4.32,-20.16 -7.93,-27.12 -7.19,-14.4 -22.07,-22.56 -40.8,-22.56 -34.79,0 -56.88,27.84 -56.88,71.52 0,44.88 21.13,72.48 54.97,72.48 14.16,0 27.36,-4.32 34.55,-11.04 6.48,-6 10.09,-13.44 12.73,-26.4 l 22.79,0"
         style="fill:#ffffff;fill-opacity:1;fill-rule:nonzero;stroke:none"
         id="path4723-6"
         inkscape:connector-curvature="0" /><path
         d="m 2582.6975,1562.9109 c -35.28,0 -56.64,-25.2 -56.64,-67.44 0,-42.24 21.12,-67.44 56.88,-67.44 35.28,0 56.88,25.2 56.88,66.48 0,43.44 -20.88,68.4 -57.12,68.4 m 0.24,-18.48 c 22.56,0 36,-18.48 36,-49.68 0,-29.52 -13.92,-48.24 -36,-48.24 -22.32,0 -36,18.48 -36,48.96 0,30.24 13.68,48.96 36,48.96"
         style="fill:#ffffff;fill-opacity:1;fill-rule:nonzero;stroke:none"
         id="path4725-9"
         inkscape:connector-curvature="0" /><path
         d="m 2667.8175,1559.3109 0,-125.76 20.16,0 0,69.36 c 0,25.68 13.44,42.48 34.08,42.48 15.84,0 25.92,-9.6 25.92,-24.72 l 0,-87.12 19.92,0 0,95.04 c 0,20.88 -15.6,34.32 -39.84,34.32 -18.72,0 -30.72,-7.2 -41.76,-24.72 l 0,21.12 -18.48,0"
         style="fill:#ffffff;fill-opacity:1;fill-rule:nonzero;stroke:none"
         id="path4727-8"
         inkscape:connector-curvature="0" /><path
         d="m 2845.5675,1559.3109 -20.64,0 0,34.56 -19.92,0 0,-34.56 -17.04,0 0,-16.32 17.04,0 0,-95.04 c 0,-12.72 8.64,-19.92 24.24,-19.92 4.8,0 9.6,0.48 16.32,1.68 l 0,16.8 c -2.64,-0.72 -5.76,-0.96 -9.6,-0.96 -8.64,0 -11.04,2.4 -11.04,11.28 l 0,86.16 20.64,0 0,16.32"
         style="fill:#ffffff;fill-opacity:1;fill-rule:nonzero;stroke:none"
         id="path4729-3"
         inkscape:connector-curvature="0" /><path
         d="m 2867.7375,1559.3109 0,-125.76 20.15,0 0,65.28 c 0,18 4.56,29.76 14.16,36.72 6.24,4.56 12.24,6 26.16,6.24 l 0,20.4 c -3.36,0.48 -5.04,0.72 -7.68,0.72 -12.95,0 -22.79,-7.68 -34.32,-26.4 l 0,22.8 -18.47,0"
         style="fill:#ffffff;fill-opacity:1;fill-rule:nonzero;stroke:none"
         id="path4731-0"
         inkscape:connector-curvature="0" /><path
         d="m 3059.7275,1445.3109 c -2.16,-0.48 -3.12,-0.48 -4.32,-0.48 -6.96,0 -10.8,3.6 -10.8,9.84 l 0,73.92 c 0,22.32 -16.32,34.32 -47.28,34.32 -18.24,0 -33.36,-5.28 -41.76,-14.64 -5.76,-6.48 -8.16,-13.68 -8.64,-26.16 l 20.16,0 c 1.68,15.36 10.8,22.32 29.52,22.32 18,0 28.08,-6.72 28.08,-18.72 l 0,-5.28 c 0,-8.4 -5.04,-12 -20.88,-13.92 -28.32,-3.6 -32.64,-4.56 -40.32,-7.68 -14.64,-6 -22.08,-17.28 -22.08,-33.6 0,-22.8 15.84,-37.2 41.28,-37.2 15.84,0 28.56,5.52 42.72,18.48 1.44,-12.72 7.68,-18.48 20.64,-18.48 4.08,0 7.2,0.48 13.68,2.16 l 0,15.12 m -35.04,27.84 c 0,-6.72 -1.92,-10.8 -7.92,-16.32 -8.16,-7.44 -18,-11.28 -29.76,-11.28 -15.6,0 -24.72,7.44 -24.72,20.16 0,13.2 8.88,19.92 30.24,23.04 21.12,2.88 25.44,3.84 32.16,6.96 l 0,-22.56"
         style="fill:#ffffff;fill-opacity:1;fill-rule:nonzero;stroke:none"
         id="path4733-4"
         inkscape:connector-curvature="0" /><path
         d="m 3177.9575,1517.0709 c -0.96,12.24 -3.6,20.16 -8.4,27.12 -8.64,11.76 -23.76,18.72 -41.28,18.72 -33.84,0 -55.92,-26.88 -55.92,-68.64 0,-40.56 21.6,-66.24 55.68,-66.24 30,0 48.96,18 51.36,48.72 l -20.16,0 c -3.36,-20.16 -13.68,-30.24 -30.72,-30.24 -22.08,0 -35.28,18 -35.28,47.76 0,31.44 12.96,50.16 34.8,50.16 16.8,0 27.36,-9.84 29.76,-27.36 l 20.16,0"
         style="fill:#ffffff;fill-opacity:1;fill-rule:nonzero;stroke:none"
         id="path4735-0"
         inkscape:connector-curvature="0" /><path
         d="m 3245.8775,1559.3109 -20.64,0 0,34.56 -19.92,0 0,-34.56 -17.04,0 0,-16.32 17.04,0 0,-95.04 c 0,-12.72 8.64,-19.92 24.24,-19.92 4.8,0 9.6,0.48 16.32,1.68 l 0,16.8 c -2.64,-0.72 -5.76,-0.96 -9.6,-0.96 -8.64,0 -11.04,2.4 -11.04,11.28 l 0,86.16 20.64,0 0,16.32"
         style="fill:#ffffff;fill-opacity:1;fill-rule:nonzero;stroke:none"
         id="path4737-4"
         inkscape:connector-curvature="0" /><path
         d="m 3287.4875,1559.3109 -19.92,0 0,-125.76 19.92,0 0,125.76 m 0,49.2 -20.17,0 0,-25.2 20.17,0 0,25.2"
         style="fill:#ffffff;fill-opacity:1;fill-rule:nonzero;stroke:none"
         id="path4739-9"
         inkscape:connector-curvature="0" /><path
         d="m 3370.1975,1562.9109 c -35.28,0 -56.64,-25.2 -56.64,-67.44 0,-42.24 21.12,-67.44 56.88,-67.44 35.28,0 56.88,25.2 56.88,66.48 0,43.44 -20.88,68.4 -57.12,68.4 m 0.24,-18.48 c 22.56,0 36,-18.48 36,-49.68 0,-29.52 -13.92,-48.24 -36,-48.24 -22.32,0 -36,18.48 -36,48.96 0,30.24 13.68,48.96 36,48.96"
         style="fill:#ffffff;fill-opacity:1;fill-rule:nonzero;stroke:none"
         id="path4741-5"
         inkscape:connector-curvature="0" /><path
         d="m 3455.3175,1559.3109 0,-125.76 20.16,0 0,69.36 c 0,25.68 13.44,42.48 34.08,42.48 15.84,0 25.92,-9.6 25.92,-24.72 l 0,-87.12 19.92,0 0,95.04 c 0,20.88 -15.6,34.32 -39.84,34.32 -18.72,0 -30.72,-7.2 -41.76,-24.72 l 0,21.12 -18.48,0"
         style="fill:#ffffff;fill-opacity:1;fill-rule:nonzero;stroke:none"
         id="path4743-2"
         inkscape:connector-curvature="0" /><path
         d="m 405.92935,330.36812 868.56505,0"
         style="fill:#ffffff;stroke:#ffffff;stroke-width:32;stroke-linecap:butt;stroke-linejoin:miter;stroke-miterlimit:10;stroke-dasharray:none;stroke-opacity:1"
         id="path4697-1"
         inkscape:connector-curvature="0" /></g></g></svg>