<?xml version="1.0" encoding="UTF-8" standalone="no"?>
<!-- Created with Inkscape (http://www.inkscape.org/) -->

<svg
   xmlns:dc="http://purl.org/dc/elements/1.1/"
   xmlns:cc="http://creativecommons.org/ns#"
   xmlns:rdf="http://www.w3.org/1999/02/22-rdf-syntax-ns#"
   xmlns:svg="http://www.w3.org/2000/svg"
   xmlns="http://www.w3.org/2000/svg"
   xmlns:sodipodi="http://sodipodi.sourceforge.net/DTD/sodipodi-0.dtd"
   xmlns:inkscape="http://www.inkscape.org/namespaces/inkscape"
   inkscape:export-ydpi="600.06"
   inkscape:export-xdpi="600.06"
   inkscape:export-filename="/home/hake/svn/PhD/disputation/triallecture/heart_scetch.png"
   version="1.0"
   inkscape:output_extension="org.inkscape.output.svg.inkscape"
   sodipodi:docname="heart_scetch.svg"
   inkscape:version="0.91 r13725"
   sodipodi:version="0.32"
   id="svg10874"
   height="348.55695"
   width="375.48178">
  <defs
     id="defs10876">
    <marker
       style="overflow:visible"
       id="marker4614"
       refX="0"
       refY="0"
       orient="auto"
       inkscape:stockid="Arrow1Mend">
      <path
         transform="matrix(-0.4,0,0,-0.4,-4,0)"
         style="fill-rule:evenodd;stroke:#ffffff;stroke-width:1pt;marker-start:none;stroke-opacity:1;fill:#ffffff;fill-opacity:1"
         d="M 0,0 5,-5 -12.5,0 5,5 0,0 Z"
         id="path4616"
         inkscape:connector-curvature="0" />
    </marker>
    <marker
       style="overflow:visible"
       id="marker4576"
       refX="0"
       refY="0"
       orient="auto"
       inkscape:stockid="Arrow1Mend">
      <path
         transform="matrix(-0.4,0,0,-0.4,-4,0)"
         style="fill-rule:evenodd;stroke:#ffffff;stroke-width:1pt;marker-start:none;stroke-opacity:1;fill:#ffffff;fill-opacity:1"
         d="M 0,0 5,-5 -12.5,0 5,5 0,0 Z"
         id="path4578"
         inkscape:connector-curvature="0" />
    </marker>
    <marker
       inkscape:stockid="Arrow1Mend"
       orient="auto"
       refY="0"
       refX="0"
       id="Arrow1Mend"
       style="overflow:visible">
      <path
         id="path13763"
         d="M 0,0 L 5,-5 L -12.5,0 L 5,5 L 0,0 z"
         style="fill-rule:evenodd;stroke:#000000;stroke-width:1pt;marker-start:none"
         transform="matrix(-0.4,0,0,-0.4,-4,0)" />
    </marker>
    <marker
       inkscape:stockid="Arrow1Lend"
       orient="auto"
       refY="0"
       refX="0"
       id="Arrow1Lend"
       style="overflow:visible">
      <path
         id="path13757"
         d="M 0,0 L 5,-5 L -12.5,0 L 5,5 L 0,0 z"
         style="fill-rule:evenodd;stroke:#000000;stroke-width:1pt;marker-start:none"
         transform="matrix(-0.8,0,0,-0.8,-10,0)" />
    </marker>
    <inkscape:perspective
       sodipodi:type="inkscape:persp3d"
       inkscape:vp_x="0 : 526.18109 : 1"
       inkscape:vp_y="0 : 1000 : 0"
       inkscape:vp_z="744.09448 : 526.18109 : 1"
       inkscape:persp3d-origin="372.04724 : 350.78739 : 1"
       id="perspective10882" />
    <inkscape:perspective
       id="perspective10891"
       inkscape:persp3d-origin="372.04724 : 350.78739 : 1"
       inkscape:vp_z="744.09448 : 526.18109 : 1"
       inkscape:vp_y="0 : 1000 : 0"
       inkscape:vp_x="0 : 526.18109 : 1"
       sodipodi:type="inkscape:persp3d" />
    <filter
       inkscape:collect="always"
       id="filter13079">
      <feGaussianBlur
         inkscape:collect="always"
         stdDeviation="5.3568833"
         id="feGaussianBlur13081" />
    </filter>
    <marker
       inkscape:stockid="Arrow1Mend"
       orient="auto"
       refY="0"
       refX="0"
       id="Arrow1Mend-6"
       style="overflow:visible">
      <path
         inkscape:connector-curvature="0"
         id="path13763-6"
         d="M 0,0 5,-5 -12.5,0 5,5 0,0 Z"
         style="fill-rule:evenodd;stroke:#000000;stroke-width:1pt;marker-start:none"
         transform="matrix(-0.4,0,0,-0.4,-4,0)" />
    </marker>
    <marker
       inkscape:stockid="Arrow1Mend"
       orient="auto"
       refY="0"
       refX="0"
       id="marker4234"
       style="overflow:visible">
      <path
         inkscape:connector-curvature="0"
         id="path4236"
         d="M 0,0 5,-5 -12.5,0 5,5 0,0 Z"
         style="fill-rule:evenodd;stroke:#000000;stroke-width:1pt;marker-start:none"
         transform="matrix(-0.4,0,0,-0.4,-4,0)" />
    </marker>
    <marker
       inkscape:stockid="Arrow1Mend"
       orient="auto"
       refY="0"
       refX="0"
       id="marker4238"
       style="overflow:visible">
      <path
         inkscape:connector-curvature="0"
         id="path4240"
         d="M 0,0 5,-5 -12.5,0 5,5 0,0 Z"
         style="fill-rule:evenodd;stroke:#000000;stroke-width:1pt;marker-start:none"
         transform="matrix(-0.4,0,0,-0.4,-4,0)" />
    </marker>
    <marker
       inkscape:stockid="Arrow1Mend"
       orient="auto"
       refY="0"
       refX="0"
       id="marker4242"
       style="overflow:visible">
      <path
         inkscape:connector-curvature="0"
         id="path4244"
         d="M 0,0 5,-5 -12.5,0 5,5 0,0 Z"
         style="fill-rule:evenodd;stroke:#ffffff;stroke-width:1pt;marker-start:none;stroke-opacity:1;fill:#ffffff;fill-opacity:1"
         transform="matrix(-0.4,0,0,-0.4,-4,0)" />
    </marker>
    <marker
       inkscape:stockid="Arrow1Mend"
       orient="auto"
       refY="0"
       refX="0"
       id="Arrow1Mend-5"
       style="overflow:visible"
       inkscape:collect="always">
      <path
         inkscape:connector-curvature="0"
         id="path13763-5"
         d="M 0,0 5,-5 -12.5,0 5,5 0,0 Z"
         style="fill-rule:evenodd;stroke:#ffffff;stroke-width:1pt;marker-start:none;stroke-opacity:1;fill:#ffffff;fill-opacity:1"
         transform="matrix(-0.4,0,0,-0.4,-4,0)" />
    </marker>
    <marker
       inkscape:stockid="Arrow1Mend"
       orient="auto"
       refY="0"
       refX="0"
       id="marker4494"
       style="overflow:visible">
      <path
         inkscape:connector-curvature="0"
         id="path4496"
         d="M 0,0 5,-5 -12.5,0 5,5 0,0 Z"
         style="fill-rule:evenodd;stroke:#000000;stroke-width:1pt;marker-start:none"
         transform="matrix(-0.4,0,0,-0.4,-4,0)" />
    </marker>
    <marker
       inkscape:stockid="Arrow1Mend"
       orient="auto"
       refY="0"
       refX="0"
       id="marker4498"
       style="overflow:visible">
      <path
         inkscape:connector-curvature="0"
         id="path4500"
         d="M 0,0 5,-5 -12.5,0 5,5 0,0 Z"
         style="fill-rule:evenodd;stroke:#000000;stroke-width:1pt;marker-start:none"
         transform="matrix(-0.4,0,0,-0.4,-4,0)" />
    </marker>
    <marker
       inkscape:stockid="Arrow1Mend"
       orient="auto"
       refY="0"
       refX="0"
       id="marker4502"
       style="overflow:visible">
      <path
         inkscape:connector-curvature="0"
         id="path4504"
         d="M 0,0 5,-5 -12.5,0 5,5 0,0 Z"
         style="fill-rule:evenodd;stroke:#000000;stroke-width:1pt;marker-start:none"
         transform="matrix(-0.4,0,0,-0.4,-4,0)" />
    </marker>
  </defs>
  <sodipodi:namedview
     inkscape:window-maximized="0"
     inkscape:window-y="54"
     inkscape:window-x="299"
     inkscape:window-height="829"
     inkscape:window-width="1440"
     showgrid="false"
     inkscape:current-layer="layer1"
     inkscape:document-units="px"
     inkscape:cy="115.65186"
     inkscape:cx="239.30666"
     inkscape:zoom="1.4142136"
     inkscape:pageshadow="2"
     inkscape:pageopacity="0.0"
     objecttolerance="10"
     guidetolerance="10"
     gridtolerance="10000"
     borderopacity="1.0"
     bordercolor="#666666"
     pagecolor="#ffffff"
     id="base" />
  <metadata
     id="metadata10879">
    <rdf:RDF>
      <cc:Work
         rdf:about="">
        <dc:format>image/svg+xml</dc:format>
        <dc:type
           rdf:resource="http://purl.org/dc/dcmitype/StillImage" />
      </cc:Work>
    </rdf:RDF>
  </metadata>
  <g
     inkscape:label="Layer 1"
     inkscape:groupmode="layer"
     id="layer1"
     transform="translate(-192.60634,-605.79695)">
    <path
       style="fill:#820000;fill-opacity:1;stroke:none;stroke-width:2;stroke-linecap:square;stroke-linejoin:round;stroke-miterlimit:4;stroke-dasharray:none;stroke-dashoffset:0;stroke-opacity:0.99107139"
       d="M 328.73327,678.75557 C 329.18326,671.50993 338.51117,662.98332 347.12613,657.68414 C 355.74109,652.38497 373.24971,648.70411 384.62613,649.11272 C 395.82422,649.51492 401.46556,656.25078 406.41185,663.21986 C 411.2976,670.10364 418.77149,683.49811 420.87613,691.07701 C 422.98077,698.6559 424.0601,706.6966 422.48327,711.4341 C 420.95984,716.0112 410.66983,719.4217 408.19756,730.3627 C 405.79249,737.8526 406.87382,751.8921 409.26899,757.1484 C 412.37845,755.9762 411.4352,756.4117 413.19756,755.0056 C 411.59601,745.544 409.50823,735.2616 415.34042,726.7913 C 417.37639,724.5199 419.36762,721.4103 422.12613,723.2199 C 424.88464,725.0295 420.58309,728.5908 421.0547,737.5056 C 421.53573,746.5984 427.46703,749.6566 430.34042,756.077 C 433.21381,762.4974 436.95429,770.2141 439.98327,780.3627 C 443.01225,790.5114 447.96204,813.1781 448.91185,823.9341 C 449.86166,834.6902 450.73441,844.9988 448.01899,850.7198 C 445.37253,856.2956 445.40662,855.4388 439.62613,853.3984 C 433.84564,851.358 426.64351,838.0148 421.0547,828.9341 C 415.46589,819.8535 405.93393,801.2987 401.76899,793.577 C 397.60405,785.8552 397.34158,782.608 393.19756,777.5056 C 389.05354,772.4031 376.41926,767.3913 373.5547,761.077 C 370.71982,754.8281 382.16807,752.0637 393.91185,755.0056 C 398.10409,756.1109 402.10957,759.8543 404.70907,760.406 C 405.66708,758.9375 405.9098,758.2323 406.0547,757.8627 C 402.41153,753.7051 394.38357,750.1416 387.15831,749.4572 C 380.66925,748.7832 371.43188,753.5142 362.66185,747.327 C 355.26063,737.0407 347.62294,718.9537 342.84042,709.2913 C 338.0579,699.6289 328.29433,685.82333 328.73327,678.75557 z"
       id="path13702" />
    <path
       style="fill:#8d0000;fill-opacity:1;stroke:none;stroke-width:2;stroke-linecap:square;stroke-linejoin:round;stroke-miterlimit:4;stroke-dasharray:none;stroke-dashoffset:0;stroke-opacity:0.99107139"
       d="M 282.12613,697.8627 C 275.91305,705.3978 263.88132,713.8857 261.41185,715.3627 C 258.90218,716.8638 255.48472,720.3017 254.26899,726.7913 C 253.05326,733.2809 256.16694,747.7516 259.98327,756.7913 C 263.7996,765.831 273.41604,779.4259 279.98327,785.3627 C 286.5505,791.2995 295.83571,798.9367 301.0547,797.1484 C 306.31119,795.3473 313.74374,792.3776 318.5547,792.8627 C 326.85705,793.2494 330.66379,799.1708 334.98327,805.3627 C 334.48024,806.9887 332.4345,806.7617 331.41185,807.1484 C 328.87135,802.178 325.34548,799.388 321.0547,798.2199 C 316.76392,797.0517 309.22955,797.2506 305.8455,801.4558 C 302.46145,805.661 306.41653,817.5741 308.01899,823.577 C 309.62145,829.5799 313.65386,837.2275 317.39399,842.2377 C 321.35134,847.5389 340.63612,872.0291 353.19756,880.0056 C 365.759,887.982 386.77503,894.8294 395.69756,893.577 C 404.62009,892.3246 407.03407,890.4955 408.5547,885.0056 C 410.07533,879.5156 404.64295,875.0028 398.91185,864.6484 C 393.18075,854.2941 377.4441,837.8092 371.59041,826.6127 C 365.73672,815.4162 359.33452,799.144 357.84042,791.4341 C 356.22014,783.0732 362.17922,773.6129 358.5547,769.2913 C 354.97395,765.0219 352.645,767.7647 348.91185,776.4341 C 345.14628,785.1788 348.66383,795.7666 349.1797,800.8091 C 347.99914,802.2802 347.36499,802.9448 345.15061,801.5248 C 343.82907,797.962 342.30506,793.0943 342.12613,787.5056 C 341.95017,782.0096 345.52142,773.5318 347.48327,768.2199 C 349.44512,762.9079 354.94068,758.3333 354.98327,752.1484 C 355.02586,745.9635 349.14677,738.3073 345.34042,730.7199 C 341.53407,723.1324 333.74681,708.2412 329.26899,701.7913 C 324.79117,695.3414 322.0726,689.70998 316.76899,687.14843 C 311.46538,684.58688 302.27499,684.64905 296.76899,686.43414 C 291.26299,688.21923 288.29549,690.38063 282.12613,697.8627 z"
       id="path13698" />
    <path
       d="M 318.41185,668.21985 C 308.44716,670.91192 272.47622,685.75212 260.35234,698.81193 C 251.31929,708.5423 244.36366,711.94226 245.91186,741.43413 C 247.46005,770.926 268.89239,790.5742 282.34043,805.00556 C 295.96761,819.62915 293.81,855.02066 311.269,872.32699 C 328.39831,889.30651 360.79194,915.42334 386.80472,914.46984 C 412.83386,913.51574 439.93121,919.30142 455.19757,908.57699 C 470.66754,897.70953 486.42141,856.38115 489.48329,833.57699 C 492.54517,810.77283 481.70409,778.41695 476.62614,763.93413 C 471.75483,750.04068 481.70409,778.41695 476.62614,763.93413 C 471.75483,750.04068 457.07712,726.92627 450.37614,719.29127 C 443.75227,711.74413 457.07712,726.92627 450.37614,719.29127 C 443.75227,711.74413 435.36387,701.28148 430.91186,686.61271 C 426.3605,671.61658 424.59319,660.36577 412.87614,649.64842 C 401.15909,638.93107 384.08039,631.89668 368.05471,634.29127 C 352.02903,636.68586 328.37654,665.52778 318.41185,668.21985 z M 329.30471,679.1127 C 329.7547,671.86706 339.08261,663.34045 347.69757,658.04127 C 356.31253,652.7421 373.82115,649.06124 385.19757,649.46985 C 396.39566,649.87205 402.037,656.60791 406.98329,663.57699 C 411.86904,670.46077 419.34293,683.85524 421.44757,691.43414 C 423.55221,699.01304 424.63154,707.05373 423.05471,711.79127 C 421.53128,716.36836 411.24127,719.77887 408.769,730.71985 C 406.36393,738.20971 407.44526,752.24923 409.84043,757.50556 C 412.94989,756.33332 412.00664,756.76885 413.769,755.3627 C 412.16745,745.90112 410.07967,735.6187 415.91186,727.14842 C 417.94783,724.87702 419.93906,721.76738 422.69757,723.57699 C 425.45608,725.3866 421.15453,728.94794 421.62614,737.8627 C 422.10717,746.95553 428.03847,750.01375 430.91186,756.43413 C 433.78525,762.85451 437.52573,770.57119 440.55471,780.71985 C 443.58369,790.86851 448.53348,813.53521 449.48329,824.29127 C 450.4331,835.04733 451.30585,845.35596 448.59043,851.07698 C 445.94397,856.65269 445.97806,855.79598 440.19757,853.75556 C 434.41708,851.71514 427.21495,838.37191 421.62614,829.29127 C 416.03733,820.21063 406.50537,801.65588 402.34043,793.93413 C 398.17549,786.21238 397.91302,782.96513 393.769,777.8627 C 389.62498,772.76027 376.9907,767.74842 374.12614,761.43413 C 371.29126,755.18527 382.73951,752.4208 394.48329,755.3627 C 398.67553,756.46802 402.68101,760.21145 405.28051,760.76317 C 406.23852,759.29459 406.48124,758.58941 406.62614,758.21985 C 402.98297,754.06221 394.95501,750.49869 387.72975,749.8143 C 381.24069,749.1403 372.00332,753.87135 363.23329,747.68414 C 355.83207,737.39785 348.19438,719.31081 343.41186,709.64842 C 338.62934,699.98603 328.86577,686.18046 329.30471,679.1127 z M 282.69757,698.21985 C 276.48449,705.75497 264.45276,714.24283 261.98329,715.71985 C 259.47362,717.22091 256.05616,720.65884 254.84043,727.14842 C 253.6247,733.638 256.73838,748.1087 260.55471,757.14842 C 264.37104,766.18814 273.98748,779.78307 280.55471,785.71985 C 287.12194,791.65663 296.40715,799.29382 301.62614,797.50556 C 306.88263,795.70445 314.31518,792.73469 319.12614,793.21985 C 327.42849,793.60651 331.23523,799.52798 335.55471,805.71985 C 335.05168,807.34587 333.00594,807.11879 331.98329,807.50556 C 329.44279,802.53518 325.91692,799.74513 321.62614,798.57699 C 317.33536,797.40885 309.80099,797.60778 306.41694,801.81294 C 303.03289,806.0181 306.98797,817.93126 308.59043,823.93413 C 310.19289,829.937 314.2253,837.58468 317.96543,842.59484 C 321.92278,847.896 341.20756,872.38623 353.769,880.3627 C 366.33044,888.33917 387.34647,895.18655 396.269,893.93413 C 405.19153,892.68171 407.60551,890.85267 409.12614,885.3627 C 410.64677,879.87273 405.21439,875.35993 399.48329,865.00556 C 393.75219,854.65119 378.01554,838.16636 372.16185,826.96985 C 366.30816,815.77334 359.90596,799.50111 358.41186,791.79127 C 356.79158,783.43032 362.75066,773.96999 359.12614,769.64842 C 355.54539,765.37903 353.21644,768.12183 349.48329,776.79127 C 345.71772,785.53598 349.23527,796.12377 349.75114,801.16627 C 348.57058,802.63734 347.93643,803.30191 345.72205,801.88195 C 344.40051,798.31914 342.8765,793.45142 342.69757,787.8627 C 342.52161,782.3667 346.09286,773.88897 348.05471,768.57699 C 350.01656,763.26501 355.51212,758.69045 355.55471,752.50556 C 355.5973,746.32067 349.71821,738.66447 345.91186,731.07699 C 342.10551,723.48951 334.31825,708.59829 329.84043,702.14842 C 325.36261,695.69855 322.64404,690.06711 317.34043,687.50556 C 312.03682,684.94401 302.84643,685.00618 297.34043,686.79127 C 291.83443,688.57636 288.86693,690.73776 282.69757,698.21985 z"
       style="fill:#b40000;fill-opacity:1;fill-rule:evenodd;stroke:#000000;stroke-width:2;stroke-linecap:butt;stroke-linejoin:miter;stroke-miterlimit:4;stroke-dasharray:none;stroke-opacity:1"
       id="path13055" />
    <path
       id="path13042"
       style="fill:none;fill-opacity:1;fill-rule:evenodd;stroke:#000000;stroke-width:1px;stroke-linecap:butt;stroke-linejoin:miter;stroke-opacity:1"
       d="M 318.41185,668.21985 C 308.44716,670.91192 272.47622,685.75212 260.35234,698.81193 C 251.31929,708.5423 244.36366,711.94226 245.91186,741.43413 C 247.46005,770.926 268.89239,790.5742 282.34043,805.00556 C 295.96761,819.62915 293.81,855.02066 311.269,872.32699 C 328.39831,889.30651 360.79194,915.42334 386.80472,914.46984 C 412.83386,913.51574 439.93121,919.30142 455.19757,908.57699 C 470.66754,897.70953 486.42141,856.38115 489.48329,833.57699 C 492.54517,810.77283 481.70409,778.41695 476.62614,763.93413 C 471.75483,750.04068 481.70409,778.41695 476.62614,763.93413 C 471.75483,750.04068 457.07712,726.92627 450.37614,719.29127 C 443.75227,711.74413 457.07712,726.92627 450.37614,719.29127 C 443.75227,711.74413 435.36387,701.28148 430.91186,686.61271 C 426.3605,671.61658 424.59319,660.36577 412.87614,649.64842 C 401.15909,638.93107 384.08039,631.89668 368.05471,634.29127 C 352.02903,636.68586 328.37654,665.52778 318.41185,668.21985 z M 329.30471,679.1127 C 329.7547,671.86706 339.08261,663.34045 347.69757,658.04127 C 356.31253,652.7421 373.82115,649.06124 385.19757,649.46985 C 396.39566,649.87205 402.037,656.60791 406.98329,663.57699 C 411.86904,670.46077 419.34293,683.85524 421.44757,691.43414 C 423.55221,699.01304 424.63154,707.05373 423.05471,711.79127 C 421.53128,716.36836 411.24127,719.77887 408.769,730.71985 C 406.36393,738.20971 407.44526,752.24923 409.84043,757.50556 C 412.94989,756.33332 412.00664,756.76885 413.769,755.3627 C 412.16745,745.90112 410.07967,735.6187 415.91186,727.14842 C 417.94783,724.87702 419.93906,721.76738 422.69757,723.57699 C 425.45608,725.3866 421.15453,728.94794 421.62614,737.8627 C 422.10717,746.95553 428.03847,750.01375 430.91186,756.43413 C 433.78525,762.85451 437.52573,770.57119 440.55471,780.71985 C 443.58369,790.86851 448.53348,813.53521 449.48329,824.29127 C 450.4331,835.04733 451.30585,845.35596 448.59043,851.07698 C 445.94397,856.65269 445.97806,855.79598 440.19757,853.75556 C 434.41708,851.71514 427.21495,838.37191 421.62614,829.29127 C 416.03733,820.21063 406.50537,801.65588 402.34043,793.93413 C 398.17549,786.21238 397.91302,782.96513 393.769,777.8627 C 389.62498,772.76027 376.9907,767.74842 374.12614,761.43413 C 371.29126,755.18527 382.73951,752.4208 394.48329,755.3627 C 398.67553,756.46802 402.68101,760.21145 405.28051,760.76317 C 406.23852,759.29459 406.48124,758.58941 406.62614,758.21985 C 402.98297,754.06221 394.95501,750.49869 387.72975,749.8143 C 381.24069,749.1403 372.00332,753.87135 363.23329,747.68414 C 355.83207,737.39785 348.19438,719.31081 343.41186,709.64842 C 338.62934,699.98603 328.86577,686.18046 329.30471,679.1127 z M 282.69757,698.21985 C 276.48449,705.75497 264.45276,714.24283 261.98329,715.71985 C 259.47362,717.22091 256.05616,720.65884 254.84043,727.14842 C 253.6247,733.638 256.73838,748.1087 260.55471,757.14842 C 264.37104,766.18814 273.98748,779.78307 280.55471,785.71985 C 287.12194,791.65663 296.40715,799.29382 301.62614,797.50556 C 306.88263,795.70445 314.31518,792.73469 319.12614,793.21985 C 327.42849,793.60651 331.23523,799.52798 335.55471,805.71985 C 335.05168,807.34587 333.00594,807.11879 331.98329,807.50556 C 329.44279,802.53518 325.91692,799.74513 321.62614,798.57699 C 317.33536,797.40885 309.80099,797.60778 306.41694,801.81294 C 303.03289,806.0181 306.98797,817.93126 308.59043,823.93413 C 310.19289,829.937 314.2253,837.58468 317.96543,842.59484 C 321.92278,847.896 341.20756,872.38623 353.769,880.3627 C 366.33044,888.33917 387.34647,895.18655 396.269,893.93413 C 405.19153,892.68171 407.60551,890.85267 409.12614,885.3627 C 410.64677,879.87273 405.21439,875.35993 399.48329,865.00556 C 393.75219,854.65119 378.01554,838.16636 372.16185,826.96985 C 366.30816,815.77334 359.90596,799.50111 358.41186,791.79127 C 356.79158,783.43032 362.75066,773.96999 359.12614,769.64842 C 355.54539,765.37903 353.21644,768.12183 349.48329,776.79127 C 345.71772,785.53598 349.23527,796.12377 349.75114,801.16627 C 348.57058,802.63734 347.93643,803.30191 345.72205,801.88195 C 344.40051,798.31914 342.8765,793.45142 342.69757,787.8627 C 342.52161,782.3667 346.09286,773.88897 348.05471,768.57699 C 350.01656,763.26501 355.51212,758.69045 355.55471,752.50556 C 355.5973,746.32067 349.71821,738.66447 345.91186,731.07699 C 342.10551,723.48951 334.31825,708.59829 329.84043,702.14842 C 325.36261,695.69855 322.64404,690.06711 317.34043,687.50556 C 312.03682,684.94401 302.84643,685.00618 297.34043,686.79127 C 291.83443,688.57636 288.86693,690.73776 282.69757,698.21985 z" />
    <path
       id="path13073"
       style="fill:none;fill-opacity:1;fill-rule:evenodd;stroke:#000000;stroke-width:5;stroke-linecap:butt;stroke-linejoin:miter;stroke-miterlimit:4;stroke-dasharray:none;stroke-opacity:1;filter:url(#filter13079)"
       d="M 318.41185,668.21985 C 308.44716,670.91192 272.47622,685.75212 260.35234,698.81193 C 251.31929,708.5423 244.36366,711.94226 245.91186,741.43413 C 247.46005,770.926 268.89239,790.5742 282.34043,805.00556 C 295.96761,819.62915 293.81,855.02066 311.269,872.32699 C 328.39831,889.30651 360.79194,915.42334 386.80472,914.46984 C 412.83386,913.51574 439.93121,919.30142 455.19757,908.57699 C 470.66754,897.70953 486.42141,856.38115 489.48329,833.57699 C 492.54517,810.77283 481.70409,778.41695 476.62614,763.93413 C 471.75483,750.04068 481.70409,778.41695 476.62614,763.93413 C 471.75483,750.04068 457.07712,726.92627 450.37614,719.29127 C 443.75227,711.74413 457.07712,726.92627 450.37614,719.29127 C 443.75227,711.74413 435.36387,701.28148 430.91186,686.61271 C 426.3605,671.61658 424.59319,660.36577 412.87614,649.64842 C 401.15909,638.93107 384.08039,631.89668 368.05471,634.29127 C 352.02903,636.68586 328.37654,665.52778 318.41185,668.21985 z M 329.30471,679.1127 C 329.7547,671.86706 339.08261,663.34045 347.69757,658.04127 C 356.31253,652.7421 373.82115,649.06124 385.19757,649.46985 C 396.39566,649.87205 402.037,656.60791 406.98329,663.57699 C 411.86904,670.46077 419.34293,683.85524 421.44757,691.43414 C 423.55221,699.01304 424.63154,707.05373 423.05471,711.79127 C 421.53128,716.36836 411.24127,719.77887 408.769,730.71985 C 406.36393,738.20971 407.44526,752.24923 409.84043,757.50556 C 412.94989,756.33332 412.00664,756.76885 413.769,755.3627 C 412.16745,745.90112 410.07967,735.6187 415.91186,727.14842 C 417.94783,724.87702 419.93906,721.76738 422.69757,723.57699 C 425.45608,725.3866 421.15453,728.94794 421.62614,737.8627 C 422.10717,746.95553 428.03847,750.01375 430.91186,756.43413 C 433.78525,762.85451 437.52573,770.57119 440.55471,780.71985 C 443.58369,790.86851 448.53348,813.53521 449.48329,824.29127 C 450.4331,835.04733 451.30585,845.35596 448.59043,851.07698 C 445.94397,856.65269 445.97806,855.79598 440.19757,853.75556 C 434.41708,851.71514 427.21495,838.37191 421.62614,829.29127 C 416.03733,820.21063 406.50537,801.65588 402.34043,793.93413 C 398.17549,786.21238 397.91302,782.96513 393.769,777.8627 C 389.62498,772.76027 376.9907,767.74842 374.12614,761.43413 C 371.29126,755.18527 382.73951,752.4208 394.48329,755.3627 C 398.67553,756.46802 402.68101,760.21145 405.28051,760.76317 C 406.23852,759.29459 406.48124,758.58941 406.62614,758.21985 C 402.98297,754.06221 394.95501,750.49869 387.72975,749.8143 C 381.24069,749.1403 372.00332,753.87135 363.23329,747.68414 C 355.83207,737.39785 348.19438,719.31081 343.41186,709.64842 C 338.62934,699.98603 328.86577,686.18046 329.30471,679.1127 z M 282.69757,698.21985 C 276.48449,705.75497 264.45276,714.24283 261.98329,715.71985 C 259.47362,717.22091 256.05616,720.65884 254.84043,727.14842 C 253.6247,733.638 256.73838,748.1087 260.55471,757.14842 C 264.37104,766.18814 273.98748,779.78307 280.55471,785.71985 C 287.12194,791.65663 296.40715,799.29382 301.62614,797.50556 C 306.88263,795.70445 314.31518,792.73469 319.12614,793.21985 C 327.42849,793.60651 331.23523,799.52798 335.55471,805.71985 C 335.05168,807.34587 333.00594,807.11879 331.98329,807.50556 C 329.44279,802.53518 325.91692,799.74513 321.62614,798.57699 C 317.33536,797.40885 309.80099,797.60778 306.41694,801.81294 C 303.03289,806.0181 306.98797,817.93126 308.59043,823.93413 C 310.19289,829.937 314.2253,837.58468 317.96543,842.59484 C 321.92278,847.896 341.20756,872.38623 353.769,880.3627 C 366.33044,888.33917 387.34647,895.18655 396.269,893.93413 C 405.19153,892.68171 407.60551,890.85267 409.12614,885.3627 C 410.64677,879.87273 405.21439,875.35993 399.48329,865.00556 C 393.75219,854.65119 378.01554,838.16636 372.16185,826.96985 C 366.30816,815.77334 359.90596,799.50111 358.41186,791.79127 C 356.79158,783.43032 362.75066,773.96999 359.12614,769.64842 C 355.54539,765.37903 353.21644,768.12183 349.48329,776.79127 C 345.71772,785.53598 349.23527,796.12377 349.75114,801.16627 C 348.57058,802.63734 347.93643,803.30191 345.72205,801.88195 C 344.40051,798.31914 342.8765,793.45142 342.69757,787.8627 C 342.52161,782.3667 346.09286,773.88897 348.05471,768.57699 C 350.01656,763.26501 355.51212,758.69045 355.55471,752.50556 C 355.5973,746.32067 349.71821,738.66447 345.91186,731.07699 C 342.10551,723.48951 334.31825,708.59829 329.84043,702.14842 C 325.36261,695.69855 322.64404,690.06711 317.34043,687.50556 C 312.03682,684.94401 302.84643,685.00618 297.34043,686.79127 C 291.83443,688.57636 288.86693,690.73776 282.69757,698.21985 z" />
    <path
       d="M 440.65615,751.05019 C 441.32393,753.27703 442.43891,760.24459 441.90615,760.55019 C 441.32781,760.88194 437.28051,753.57306 436.53115,750.30019 C 435.78179,747.02732 437.32299,740.76277 435.96865,740.42519 C 434.64877,740.0962 433.99781,742.17364 433.78115,743.98769 C 433.57185,745.74013 434.07449,751.76035 435.59365,755.17519 C 437.06625,758.48537 440.65723,763.40642 443.84365,771.92519 C 447.03007,780.44396 452.24618,793.61324 453.96865,805.86269 C 455.69112,818.11214 457.44052,844.62282 453.59365,852.67519 C 449.74678,860.72756 443.94656,862.64418 438.34365,860.67519 C 432.81446,858.73211 421.91917,843.82128 415.34365,827.92519 C 408.74605,811.97572 399.93545,795.97535 393.34365,786.92519 C 386.75185,777.87503 379.59168,771.33702 373.84365,766.67519 C 368.09562,762.01336 362.4717,755.43925 355.84365,755.42519 C 349.22085,755.41114 335.09674,755.70028 332.46865,759.92519 C 329.84056,764.1501 331.88638,769.38719 335.96865,771.30019 C 340.05092,773.21319 348.92176,763.5708 354.21865,763.17519 C 359.30985,762.79494 363.94671,765.77448 365.96865,770.80019 C 367.99059,775.8259 362.52177,785.96072 364.34365,794.67519 C 366.16553,803.38966 374.09237,815.51325 381.34365,828.17519 C 388.59493,840.83713 411.35237,873.3344 413.09365,879.17519 C 414.73199,884.67069 413.84097,887.6851 412.03115,892.30019 C 410.20007,896.9695 401.50001,897.18433 395.59365,896.80019 C 389.69648,896.41665 381.78841,896.42896 374.03115,894.30019 C 366.27389,892.17142 351.21691,883.21652 346.03115,879.67519 C 340.77364,876.08486 332.15091,864.70423 326.71865,860.23769 C 321.28639,855.77115 311.57045,848.19869 310.09365,849.67519 C 308.58592,851.18261 309.58841,851.52591 309.84365,852.42519 C 310.12022,853.39961 324.68049,859.29028 324.09365,860.92519 C 323.52673,862.50461 310.64007,857.8168 309.84365,859.17519 C 309.03171,860.56005 309.57471,860.35631 309.59365,861.17519 C 309.61115,861.9316 319.56551,861.84806 323.84365,863.92519 C 328.12179,866.00232 338.05994,873.20909 336.84365,875.17519 C 335.6552,877.09629 322.49644,870.26728 321.40615,871.05019 C 320.27424,871.86299 318.43407,873.69027 321.09365,874.17519 C 323.74151,874.65797 332.20704,876.73537 336.53115,878.48769 C 340.85526,880.24001 348.94321,883.13813 349.34365,885.42519 C 349.74094,887.69426 338.35064,887.44757 338.40615,888.86269 C 338.46151,890.27399 339.1281,890.24801 340.09365,890.17519 C 340.99707,890.10706 353.2846,888.82679 357.78115,889.92519 C 362.2777,891.02359 367.15725,894.0575 367.46865,895.30019 C 363.4791,897.31757 358.3132,896.86091 356.09365,897.98769 C 356.1241,899.48947 356.3808,898.76465 357.03115,899.73769 C 359.18559,899.64803 365.06758,898.61992 366.09365,898.11269 C 367.11972,897.60546 372.93418,895.92616 373.71865,898.11269 C 374.50312,900.29922 366.53138,900.6238 367.21865,902.48769 C 367.87828,904.27661 372.79094,901.01907 376.09365,900.67519 C 379.39636,900.33131 386.08003,900.2431 389.34365,900.17519 C 392.60228,900.10739 398.46718,898.38932 398.84365,900.67519 C 399.30863,902.61413 391.09377,902.73317 386.09365,905.80019 C 386.71853,907.24221 386.77442,907.09006 386.84365,907.30019 C 394.00071,905.54149 402.34653,904.73576 410.84365,898.92519 C 419.39858,893.07508 419.17462,881.75699 415.28115,874.42519 C 411.24282,866.8206 377.96293,819.81118 373.09365,805.17519 C 368.22437,790.5392 369.54249,777.59846 370.84365,776.92519 C 372.24241,776.20142 379.73614,781.36107 387.59365,790.67519 C 395.45116,799.98931 409.70613,831.0688 417.09365,842.42519 C 424.48117,853.78158 428.28394,864.84007 435.34365,867.17519 C 442.40336,869.51031 448.83763,865.79151 453.34365,861.67519 C 457.84967,857.55887 460.27617,841.27157 460.46865,838.80019 C 460.66213,836.31602 463.7358,830.62093 464.84365,829.30019 C 465.86394,828.08383 470.69884,826.00223 470.15615,824.17519 C 469.61346,822.34815 467.5821,825.4652 466.84365,823.92519 C 466.1052,822.38518 471.15579,818.00611 470.59365,816.67519 C 470.03151,815.34427 469.36001,815.90319 468.28115,816.48769 C 467.22736,817.05861 466.45235,818.6959 465.34365,820.98769 C 464.21051,823.33 462.54648,830.2098 461.09365,829.92519 C 459.58058,829.62878 459.35097,821.43088 460.84365,818.92519 C 462.35245,816.39244 466.06681,812.71704 466.90615,810.23769 C 467.74549,807.75834 468.27453,804.43833 467.34365,803.67519 C 466.41277,802.91205 465.98203,803.5451 465.21865,804.86269 C 464.45297,805.49304 462.53,817.09037 459.40615,814.73769 C 458.59632,813.30738 458.62957,809.78151 459.59365,805.92519 C 460.55773,802.06887 465.94619,793.57468 466.40615,791.67519 C 466.85493,789.82186 467.37685,787.78701 465.34365,787.92519 C 462.9948,788.08482 459.35896,802.67727 457.84365,802.67519 C 456.32697,802.67311 455.57655,794.91917 456.40615,792.05019 C 457.21906,789.23894 457.5369,786.81663 457.53115,783.86269 C 457.5254,780.90875 456.09624,774.05942 455.84365,773.67519 C 455.63538,773.35838 453.95686,773.55736 453.59365,774.92519 C 453.24597,776.23455 455.83153,788.3371 453.84365,788.67519 C 451.795,789.02362 450.27239,782.11703 450.09365,779.42519 C 449.91491,776.73335 451.85083,774.59721 452.09365,771.67519 C 452.33647,768.75317 451.7175,760.33223 451.09365,760.17519 C 450.54492,760.03706 450.16075,759.81905 449.40615,760.86269 C 448.67359,761.87585 450.44531,772.34404 448.34365,772.67519 C 446.30295,772.99673 445.18076,766.55065 444.59365,763.67519 C 444.00654,760.79973 444.7756,755.98059 444.28115,753.23769 C 443.7867,750.49479 443.76754,746.30075 441.84365,746.42519 C 439.91976,746.54963 439.98343,748.80689 440.65615,751.05019 z M 270.37637,709.35863 C 268.46236,706.55484 264.90003,706.11205 261.53758,707.58172 C 258.41008,708.9487 252.0024,722.01376 253.99862,728.19391 C 255.99483,734.37406 260.06299,735.75557 264.13722,731.74773 C 268.21145,727.73989 272.41622,712.34676 270.37637,709.35863 z"
       style="fill:#646464;fill-opacity:1;fill-rule:evenodd;stroke:#000000;stroke-width:1px;stroke-linecap:butt;stroke-linejoin:round;stroke-opacity:1"
       id="path13094" />
    <text
       id="text13119"
       y="819.72406"
       x="210.01071"
       style="font-size:20px;font-style:normal;font-variant:normal;font-weight:bold;font-stretch:normal;fill:#000000;fill-opacity:1;stroke:none;stroke-width:1px;stroke-linecap:butt;stroke-linejoin:miter;stroke-opacity:1;font-family:FreeSans;-inkscape-font-specification:FreeSans Bold"
       xml:space="preserve"><tspan
         y="819.72406"
         x="210.01071"
         id="tspan13121"
         sodipodi:role="line" /></text>
    <text
       id="text13123"
       y="831.46729"
       x="17.161755"
       style="font-size:20px;font-style:normal;font-variant:normal;font-weight:normal;font-stretch:normal;fill:#000000;fill-opacity:1;stroke:none;stroke-width:1px;stroke-linecap:butt;stroke-linejoin:miter;stroke-opacity:1;font-family:FreeSans;-inkscape-font-specification:FreeSans"
       xml:space="preserve"
       transform="matrix(0.8437442,-0.5367455,0.5367455,0.8437442,0,0)"><tspan
         id="tspan13127"
         y="831.46729"
         x="17.161755"
         sodipodi:role="line">Atria</tspan></text>
    <text
       id="text13131"
       y="857.64795"
       x="-1.7335192"
       style="font-size:20px;font-style:normal;font-variant:normal;font-weight:normal;font-stretch:normal;fill:#000000;fill-opacity:1;stroke:none;stroke-width:1px;stroke-linecap:butt;stroke-linejoin:miter;stroke-opacity:1;font-family:FreeSans;-inkscape-font-specification:FreeSans"
       xml:space="preserve"
       transform="matrix(0.8437442,-0.5367455,0.5367455,0.8437442,0,0)"><tspan
         y="857.64795"
         x="-1.7335192"
         id="tspan13133"
         sodipodi:role="line">Ventricles</tspan></text>
    <text
       xml:space="preserve"
       style="font-size:20px;font-style:normal;font-variant:normal;font-weight:normal;font-stretch:normal;fill:#000000;fill-opacity:1;stroke:none;stroke-width:1px;stroke-linecap:butt;stroke-linejoin:miter;stroke-opacity:1;font-family:FreeSans;-inkscape-font-specification:FreeSans"
       x="218.09219"
       y="658.13721"
       id="text13169"><tspan
         sodipodi:role="line"
         id="tspan13171"
         x="218.09219"
         y="658.13721">SA-Node</tspan></text>
    <text
       xml:space="preserve"
       style="font-size:20px;font-style:normal;font-variant:normal;font-weight:normal;font-stretch:normal;fill:#000000;fill-opacity:1;stroke:none;stroke-width:1px;stroke-linecap:butt;stroke-linejoin:miter;stroke-opacity:1;font-family:FreeSans;-inkscape-font-specification:FreeSans"
       x="192.5658"
       y="810.54218"
       id="text13739"><tspan
         sodipodi:role="line"
         id="tspan13741"
         x="192.5658"
         y="810.54218">AV-Node</tspan></text>
    <text
       xml:space="preserve"
       style="font-size:20px;font-style:normal;font-variant:normal;font-weight:normal;font-stretch:normal;fill:#000000;fill-opacity:1;stroke:none;stroke-width:1px;stroke-linecap:butt;stroke-linejoin:miter;stroke-opacity:1;font-family:FreeSans;-inkscape-font-specification:FreeSans"
       x="496.5"
       y="770.36218"
       id="text13743"><tspan
         sodipodi:role="line"
         id="tspan13745"
         x="496.5"
         y="770.36218">Purkinje</tspan><tspan
         sodipodi:role="line"
         x="496.5"
         y="795.36218"
         id="tspan13747">network</tspan></text>
    <path
       style="fill:none;fill-rule:evenodd;stroke:#000000;stroke-width:2;stroke-linecap:butt;stroke-linejoin:miter;marker-start:none;marker-mid:none;marker-end:url(#Arrow1Mend);stroke-miterlimit:4;stroke-dasharray:none;stroke-opacity:1"
       d="M 237.5,787.36218 C 248.5,754.19551 284.18322,755.5167 324,762.36218"
       id="path13749"
       sodipodi:nodetypes="cc" />
    <path
       style="fill:none;fill-rule:evenodd;stroke:#000000;stroke-width:2;stroke-linecap:butt;stroke-linejoin:miter;marker-start:none;marker-mid:none;marker-end:url(#Arrow1Mend);stroke-miterlimit:4;stroke-dasharray:none;stroke-opacity:1"
       d="M 249.51446,663.0999 C 249.51446,674.93323 252.19768,681.25442 260.51446,698.0999"
       id="path18681"
       sodipodi:nodetypes="cc" />
    <path
       style="fill:none;fill-rule:evenodd;stroke:#000000;stroke-width:2;stroke-linecap:butt;stroke-linejoin:miter;marker-start:none;marker-mid:none;marker-end:url(#Arrow1Mend);stroke-miterlimit:4;stroke-dasharray:none;stroke-opacity:1"
       d="M 530.3073,807.21551 C 528.3073,833.04884 524.99052,854.37003 466.3073,851.21551"
       id="path18683"
       sodipodi:nodetypes="cc" />
    <path
       sodipodi:nodetypes="cc"
       id="path18685"
       d="M 530.3073,807.21551 C 533.3073,847.04884 483.99052,897.37003 425.3073,894.21551"
       style="fill:none;fill-rule:evenodd;stroke:#000000;stroke-width:2;stroke-linecap:butt;stroke-linejoin:miter;marker-start:none;marker-mid:none;marker-end:url(#Arrow1Mend);stroke-miterlimit:4;stroke-dasharray:none;stroke-opacity:1" />
    <path
       style="fill:none;fill-rule:evenodd;stroke:#000000;stroke-width:2;stroke-linecap:butt;stroke-linejoin:miter;stroke-opacity:1;stroke-miterlimit:4;stroke-dasharray:6,6;stroke-dashoffset:0"
       d="M 252.43712,103.898 L 340.82547,48.036564"
       id="path19566"
       transform="translate(192.60634,605.79695)" />
    <path
       style="fill:none;fill-rule:evenodd;stroke:#000000;stroke-width:2;stroke-linecap:butt;stroke-linejoin:miter;stroke-opacity:1;stroke-miterlimit:4;stroke-dasharray:6,6;stroke-dashoffset:6.8"
       d="M 91.923882,204.30716 L 30.405592,242.49093"
       id="path19568"
       transform="translate(192.60634,605.79695)" />
    <text
       id="text13123-9"
       y="830.21967"
       x="16.121185"
       style="font-style:normal;font-variant:normal;font-weight:normal;font-stretch:normal;font-size:20px;font-family:FreeSans;-inkscape-font-specification:FreeSans;fill:#ffffff;fill-opacity:1;stroke:none;stroke-width:1px;stroke-linecap:butt;stroke-linejoin:miter;stroke-opacity:1;"
       xml:space="preserve"
       transform="matrix(0.8437442,-0.5367455,0.5367455,0.8437442,0,0)"><tspan
         id="tspan13127-5"
         y="830.21967"
         x="16.121185"
         sodipodi:role="line">Atria</tspan></text>
    <text
       id="text13131-3"
       y="856.40033"
       x="-2.7740936"
       style="font-style:normal;font-variant:normal;font-weight:normal;font-stretch:normal;font-size:20px;font-family:FreeSans;-inkscape-font-specification:FreeSans;fill:#ffffff;fill-opacity:1;stroke:none;stroke-width:1px;stroke-linecap:butt;stroke-linejoin:miter;stroke-opacity:1;"
       xml:space="preserve"
       transform="matrix(0.8437442,-0.5367455,0.5367455,0.8437442,0,0)"><tspan
         y="856.40033"
         x="-2.7740936"
         id="tspan13133-8"
         sodipodi:role="line">Ventricles</tspan></text>
    <text
       xml:space="preserve"
       style="font-style:normal;font-variant:normal;font-weight:normal;font-stretch:normal;font-size:20px;font-family:FreeSans;-inkscape-font-specification:FreeSans;fill:#ffffff;fill-opacity:1;stroke:none;stroke-width:1px;stroke-linecap:butt;stroke-linejoin:miter;stroke-opacity:1;"
       x="216.54454"
       y="657.64307"
       id="text13169-1"><tspan
         sodipodi:role="line"
         id="tspan13171-9"
         x="216.54454"
         y="657.64307">SA-Node</tspan></text>
    <text
       xml:space="preserve"
       style="font-style:normal;font-variant:normal;font-weight:normal;font-stretch:normal;font-size:20px;font-family:FreeSans;-inkscape-font-specification:FreeSans;fill:#ffffff;fill-opacity:1;stroke:none;stroke-width:1px;stroke-linecap:butt;stroke-linejoin:miter;stroke-opacity:1;"
       x="191.01814"
       y="810.04803"
       id="text13739-6"><tspan
         sodipodi:role="line"
         id="tspan13741-1"
         x="191.01814"
         y="810.04803">AV-Node</tspan></text>
    <text
       xml:space="preserve"
       style="font-style:normal;font-variant:normal;font-weight:normal;font-stretch:normal;font-size:20px;font-family:FreeSans;-inkscape-font-specification:FreeSans;fill:#ffffff;fill-opacity:1;stroke:none;stroke-width:1px;stroke-linecap:butt;stroke-linejoin:miter;stroke-opacity:1;"
       x="494.95236"
       y="769.86804"
       id="text13743-8"><tspan
         sodipodi:role="line"
         id="tspan13745-2"
         x="494.95236"
         y="769.86804">Purkinje</tspan><tspan
         sodipodi:role="line"
         x="494.95236"
         y="794.86804"
         id="tspan13747-4">network</tspan></text>
    <path
       inkscape:connector-curvature="0"
       style="fill:none;fill-rule:evenodd;stroke:#000000;stroke-width:2;stroke-linecap:butt;stroke-linejoin:miter;stroke-miterlimit:4;stroke-dasharray:none;stroke-opacity:1;marker-start:none;marker-mid:none;marker-end:url(#Arrow1Mend-6)"
       d="m 15.015431,134.37399 c 11,-33.16667 46.68322,-31.84548 86.499999,-25"
       id="path13749-7"
       sodipodi:nodetypes="cc" />
    <path
       inkscape:connector-curvature="0"
       style="fill:none;fill-rule:evenodd;stroke:#000000;stroke-width:2;stroke-linecap:butt;stroke-linejoin:miter;stroke-miterlimit:4;stroke-dasharray:none;stroke-opacity:1;marker-start:none;marker-mid:none;marker-end:url(#Arrow1Mend-6)"
       d="m 27.029891,10.111714 c 0,11.83333 2.68322,18.15452 11,35"
       id="path18681-5"
       sodipodi:nodetypes="cc" />
    <path
       inkscape:connector-curvature="0"
       style="fill:none;fill-rule:evenodd;stroke:#000000;stroke-width:2;stroke-linecap:butt;stroke-linejoin:miter;stroke-miterlimit:4;stroke-dasharray:none;stroke-opacity:1;marker-start:none;marker-mid:none;marker-end:url(#Arrow1Mend-6)"
       d="m 307.82273,154.22732 c -2,25.83333 -5.31678,47.15452 -64,44"
       id="path18683-0"
       sodipodi:nodetypes="cc" />
    <path
       inkscape:connector-curvature="0"
       sodipodi:nodetypes="cc"
       id="path18685-4"
       d="m 307.82273,154.22732 c 3,39.83333 -46.31678,90.15452 -105,87"
       style="fill:none;fill-rule:evenodd;stroke:#000000;stroke-width:2;stroke-linecap:butt;stroke-linejoin:miter;stroke-miterlimit:4;stroke-dasharray:none;stroke-opacity:1;marker-start:none;marker-mid:none;marker-end:url(#Arrow1Mend-6)" />
    <path
       inkscape:connector-curvature="0"
       style="fill:none;fill-rule:evenodd;stroke:#000000;stroke-width:2;stroke-linecap:butt;stroke-linejoin:miter;stroke-miterlimit:4;stroke-dasharray:6, 6;stroke-dashoffset:0;stroke-opacity:1"
       d="M 222.55889,56.706764 310.94724,0.84532817"
       id="path19566-7" />
    <path
       inkscape:connector-curvature="0"
       style="fill:none;fill-rule:evenodd;stroke:#000000;stroke-width:2;stroke-linecap:butt;stroke-linejoin:miter;stroke-miterlimit:4;stroke-dasharray:6, 6;stroke-dashoffset:6.80000019;stroke-opacity:1"
       d="M 62.045653,157.11592 0.5273629,195.29969"
       id="path19568-2" />
    <path
       inkscape:connector-curvature="0"
       style="fill:none;fill-rule:evenodd;stroke:#ffffff;stroke-width:2;stroke-linecap:butt;stroke-linejoin:miter;stroke-miterlimit:4;stroke-dasharray:none;stroke-opacity:1;marker-start:none;marker-mid:none;marker-end:url(#marker4242)"
       d="m 236.08234,786.69978 c 11,-33.16667 46.68322,-31.84548 86.5,-25"
       id="path13749-6"
       sodipodi:nodetypes="cc" />
    <path
       inkscape:connector-curvature="0"
       style="fill:none;fill-rule:evenodd;stroke:#ffffff;stroke-width:2;stroke-linecap:butt;stroke-linejoin:miter;stroke-miterlimit:4;stroke-dasharray:none;stroke-opacity:1;marker-start:none;marker-mid:none;marker-end:url(#marker4576)"
       d="m 248.27358,662.08395 c 0,11.83333 2.68322,18.15452 11,35"
       id="path18681-0"
       sodipodi:nodetypes="cc" />
    <path
       inkscape:connector-curvature="0"
       style="fill:none;fill-rule:evenodd;stroke:#ffffff;stroke-width:2;stroke-linecap:butt;stroke-linejoin:miter;stroke-miterlimit:4;stroke-dasharray:none;stroke-opacity:1;marker-start:none;marker-mid:none;marker-end:url(#marker4614)"
       d="m 529.06642,806.19956 c -2,25.83333 -5.31678,47.15452 -64,44"
       id="path18683-04"
       sodipodi:nodetypes="cc" />
    <path
       inkscape:connector-curvature="0"
       sodipodi:nodetypes="cc"
       id="path18685-7"
       d="m 529.06642,806.19956 c 3,39.83333 -46.31678,90.15452 -105,87"
       style="fill:none;fill-rule:evenodd;stroke:#ffffff;stroke-width:2;stroke-linecap:butt;stroke-linejoin:miter;stroke-miterlimit:4;stroke-dasharray:none;stroke-opacity:1;marker-start:none;marker-mid:none;marker-end:url(#Arrow1Mend-5)" />
    <path
       inkscape:connector-curvature="0"
       style="fill:none;fill-rule:evenodd;stroke:#ffffff;stroke-width:2;stroke-linecap:butt;stroke-linejoin:miter;stroke-miterlimit:4;stroke-dasharray:6, 6;stroke-dashoffset:0;stroke-opacity:1"
       d="m 443.80258,708.679 88.38835,-55.86143"
       id="path19566-5" />
    <path
       inkscape:connector-curvature="0"
       style="fill:none;fill-rule:evenodd;stroke:#ffffff;stroke-width:2;stroke-linecap:butt;stroke-linejoin:miter;stroke-miterlimit:4;stroke-dasharray:6, 6;stroke-dashoffset:6.80000019;stroke-opacity:1"
       d="m 283.28934,809.08816 -61.51829,38.18377"
       id="path19568-4" />
  </g>
</svg>
